<?xml version="1.0" encoding="UTF-8" standalone="no"?>
<svg
   xmlns:dc="http://purl.org/dc/elements/1.1/"
   xmlns:cc="http://creativecommons.org/ns#"
   xmlns:rdf="http://www.w3.org/1999/02/22-rdf-syntax-ns#"
   xmlns:svg="http://www.w3.org/2000/svg"
   xmlns="http://www.w3.org/2000/svg"
   xmlns:sodipodi="http://sodipodi.sourceforge.net/DTD/sodipodi-0.dtd"
   xmlns:inkscape="http://www.inkscape.org/namespaces/inkscape"
   width="64"
   height="64"
   fill="none"
   version="1.1"
   id="svg55"
   sodipodi:docname="katsu.svg"
   inkscape:version="1.0.2-2 (e86c870879, 2021-01-15)">
  <metadata
     id="metadata59">
    <rdf:RDF>
      <cc:Work
         rdf:about="">
        <dc:format>image/svg+xml</dc:format>
        <dc:type
           rdf:resource="http://purl.org/dc/dcmitype/StillImage" />
        <dc:title />
      </cc:Work>
    </rdf:RDF>
  </metadata>
  <sodipodi:namedview
     pagecolor="#ffffff"
     bordercolor="#666666"
     borderopacity="1"
     objecttolerance="10"
     gridtolerance="10"
     guidetolerance="10"
     inkscape:pageopacity="0"
     inkscape:pageshadow="2"
     inkscape:window-width="1920"
     inkscape:window-height="1057"
     id="namedview57"
     showgrid="false"
     inkscape:zoom="6.640625"
     inkscape:cx="45.288569"
     inkscape:cy="48.231466"
     inkscape:window-x="2552"
     inkscape:window-y="-8"
     inkscape:window-maximized="1"
     inkscape:current-layer="svg55"
     inkscape:document-rotation="0" />
  <style
     id="style2">.B{fill-rule:evenodd}.C{fill:#633001}.D{fill:#fedc90}.E{fill:#d1884f}</style>
  <defs
     id="defs53">
    <linearGradient
       id="A"
       x1="25.691"
       x2="25.691"
       y1="9.655"
       y2="40.261"
       gradientUnits="userSpaceOnUse">
      <stop
         stop-color="#9f4a08"
         id="stop46" />
      <stop
         offset=".37"
         stop-color="#7d3900"
         id="stop48" />
      <stop
         offset="1"
         stop-color="#8d4104"
         id="stop50" />
    </linearGradient>
    <clipPath
       id="Clip_1">
      <path
         id="path6267"
         d="M 1277.114,46.511 C 1082.38,53.524 927.411,139.59 930.981,238.747 v 0 c 3.57,99.159 164.331,173.852 359.062,166.842 v 0 c 194.735,-7.015 349.705,-93.082 346.134,-192.24 v 0 C 1632.754,118.506 1485.572,46.046 1302.367,46.055 v 0 c -8.335,0 -16.778,0.151 -25.253,0.456 z"
         inkscape:connector-curvature="0" />
    </clipPath>
    <clipPath
       id="Clip_3">
      <path
         id="path6273"
         d="M 981.373,33.64 H 1352.89 V 343.96 H 981.373 Z"
         inkscape:connector-curvature="0" />
    </clipPath>
    <clipPath
       id="Clip_5">
      <path
         id="path6279"
         d="m 1170.23,7.09 h 404.4 v 249.12 h -404.4 z"
         inkscape:connector-curvature="0" />
    </clipPath>
    <linearGradient
       y2="243.50999"
       x2="1263.12"
       y1="315.392"
       x1="1221.619"
       gradientUnits="userSpaceOnUse"
       id="Gradient_1"
       gradientTransform="translate(-947.27164,-976.74611)">
      <stop
         id="stop6282"
         stop-color="#F8D2B5"
         offset="0" />
      <stop
         id="stop6284"
         stop-color="#EC9A86"
         offset="1" />
    </linearGradient>
    <clipPath
       id="Clip_6">
      <path
         id="path6287"
         d="m 1071.8,231.73 h 232.98 V 387.29 H 1071.8 Z"
         inkscape:connector-curvature="0" />
    </clipPath>
    <clipPath
       id="Clip_7">
      <path
         id="path6290"
         d="m 1328.26,296 h 63.92 v 69.61 h -63.92 z"
         inkscape:connector-curvature="0" />
    </clipPath>
    <clipPath
       id="Clip_8">
      <path
         id="path6293"
         d="m 1390.33,266.41 h 70.54 v 84.7 h -70.54 z"
         inkscape:connector-curvature="0" />
    </clipPath>
    <clipPath
       id="Clip_9">
      <path
         id="path6296"
         d="m 1461.69,239.73 h 70.54 v 84.69 h -70.54 z"
         inkscape:connector-curvature="0" />
    </clipPath>
    <clipPath
       id="Clip_10">
      <path
         id="path6299"
         d="m 1523.18,189.84 h 63.17 v 113.7 h -63.17 z"
         inkscape:connector-curvature="0" />
    </clipPath>
  </defs>
  <g
     id="g6344"
     transform="matrix(0.07292003,0,0,0.13582534,-61.96554,2.0925697)"
     style="display:inline"
     inkscape:export-xdpi="96"
     inkscape:export-ydpi="96">
    <path
       id="path6340"
       d="m 1261.589,440.113 c -104.532,0 -202.439,-20.108 -275.691,-56.622 -74.327,-37.046 -116.345,-87.64 -118.32,-142.461 -2.07,-57.483 39.576,-112.902 117.264,-156.048 76.957,-42.74 180.319,-68.474 291.043,-72.462 9.875,-0.356 19.86,-0.536 29.674,-0.536 104.539,0 202.451,20.108 275.702,56.619 74.322,37.045 116.339,87.64 118.318,142.464 2.068,57.483 -39.578,112.902 -117.265,156.048 -76.959,42.74 -180.324,68.476 -291.045,72.461 -9.875,0.356 -19.863,0.537 -29.68,0.537"
       inkscape:connector-curvature="0"
       style="fill:#fffffe" />
    <path
       id="path6342"
       d="m 1305.599,8.503 v 6.961 l -0.01,-6.961 c -9.897,0 -19.924,0.181 -29.823,0.539 -111.268,4.006 -215.186,29.895 -292.613,72.896 -78.892,43.817 -121.172,100.359 -119.052,159.217 2.022,56.152 44.724,107.808 120.242,145.453 73.728,36.747 172.187,56.986 277.246,56.986 9.859,0 19.885,-0.181 29.803,-0.539 111.268,-4.006 215.182,-29.895 292.613,-72.899 78.892,-43.811 121.171,-100.358 119.051,-159.214 -2.021,-56.15 -44.723,-107.806 -120.234,-145.449 C 1509.1,28.743 1410.648,8.503 1305.599,8.503 m -0.039,6.961 c 214.341,-0.011 386.54,84.766 390.541,195.73 4.176,116.006 -177.13,216.702 -404.959,224.904 -9.932,0.358 -19.789,0.535 -29.553,0.535 -214.323,0 -386.536,-84.773 -390.532,-195.729 -4.178,-116.009 177.128,-216.701 404.955,-224.907 9.914,-0.355 19.796,-0.531 29.548,-0.533"
       inkscape:connector-curvature="0"
       style="fill:#1a1919" />
  </g>
  <g
     id="g6742"
     clip-path="url(#Clip_1)"
     transform="matrix(0.07292003,0,0,0.13582534,-61.96554,2.0925697)"
     style="display:inline"
     inkscape:export-xdpi="96"
     inkscape:export-ydpi="96">
    <path
       id="path6346"
       d="m 927.409,39.498 h 712.335 V 412.599 H 927.409 Z"
       inkscape:connector-curvature="0"
       style="fill:#fbfaf9" />
    <path
       id="path6348"
       d="m 1634.342,225.76 c 0.074,98.102 -156.9,177.747 -350.621,177.911 -193.718,0.155 -350.819,-79.239 -350.9,-177.332 -0.081,-98.101 156.891,-177.749 350.612,-177.911 193.72,-0.155 350.828,79.239 350.909,177.332"
       inkscape:connector-curvature="0"
       style="fill:#fbfaf9" />
    <path
       id="path6350"
       d="m 1634.254,225.76 c 0.07,98.073 -156.858,177.703 -350.533,177.865 -193.664,0.156 -350.728,-79.221 -350.811,-177.286 -0.08,-98.073 156.856,-177.703 350.523,-177.867 193.674,-0.153 350.74,79.221 350.821,177.288"
       inkscape:connector-curvature="0"
       style="fill:#faf9f8" />
    <path
       id="path6352"
       d="m 1634.162,225.76 c 0.074,98.047 -156.819,177.658 -350.441,177.821 -193.619,0.154 -350.638,-79.203 -350.719,-177.242 -0.082,-98.047 156.81,-177.657 350.43,-177.821 193.619,-0.154 350.649,79.204 350.73,177.242"
       inkscape:connector-curvature="0"
       style="fill:#f9f8f7" />
    <path
       id="path6354"
       d="m 1634.071,225.76 c 0.074,98.019 -156.773,177.612 -350.349,177.767 -193.564,0.162 -350.547,-79.176 -350.63,-177.188 -0.081,-98.021 156.775,-177.613 350.341,-177.766 193.576,-0.164 350.557,79.175 350.638,177.187"
       inkscape:connector-curvature="0"
       style="fill:#f8f7f6" />
    <path
       id="path6356"
       d="m 1633.983,225.769 c 0.07,97.993 -156.738,177.557 -350.261,177.713 -193.52,0.163 -350.457,-79.159 -350.538,-177.151 -0.082,-97.993 156.738,-177.559 350.249,-177.712 193.519,-0.164 350.458,79.158 350.55,177.15"
       inkscape:connector-curvature="0"
       style="fill:#f7f6f5" />
    <path
       id="path6358"
       d="m 1633.88,225.769 c 0.082,97.966 -156.691,177.513 -350.158,177.667 C 1090.255,403.599 933.356,324.306 933.273,226.331 933.192,128.364 1089.967,48.817 1283.432,48.663 1476.9,48.5 1633.8,127.794 1633.88,225.769"
       inkscape:connector-curvature="0"
       style="fill:#f6f5f4" />
    <path
       id="path6360"
       d="m 1633.789,225.769 c 0.084,97.938 -156.646,177.468 -350.068,177.621 -193.411,0.155 -350.275,-79.112 -350.356,-177.059 -0.081,-97.938 156.655,-177.468 350.067,-177.622 193.422,-0.154 350.276,79.112 350.357,177.06"
       inkscape:connector-curvature="0"
       style="fill:#f5f4f3" />
    <path
       id="path6362"
       d="m 1633.701,225.769 c 0.081,97.911 -156.611,177.422 -349.98,177.577 -193.365,0.153 -350.184,-79.095 -350.267,-177.015 -0.072,-97.912 156.612,-177.424 349.978,-177.577 193.365,-0.155 350.188,79.095 350.269,177.015"
       inkscape:connector-curvature="0"
       style="fill:#f3f3f2" />
    <path
       id="path6364"
       d="m 1633.609,225.769 c 0.081,97.883 -156.566,177.376 -349.888,177.531 -193.31,0.153 -350.095,-79.077 -350.167,-176.969 -0.08,-97.885 156.566,-177.378 349.878,-177.531 193.323,-0.155 350.096,79.075 350.177,176.969"
       inkscape:connector-curvature="0"
       style="fill:#f2f2f1" />
    <path
       id="path6366"
       d="m 1633.518,225.769 c 0.081,97.866 -156.53,177.323 -349.797,177.485 -193.264,0.155 -350.002,-79.057 -350.076,-176.923 -0.081,-97.866 156.521,-177.323 349.788,-177.487 193.266,-0.153 350.004,79.059 350.085,176.925"
       inkscape:connector-curvature="0"
       style="fill:#f1f1f0" />
    <path
       id="path6368"
       d="m 1633.426,225.769 c 0.084,97.838 -156.491,177.277 -349.705,177.441 -193.212,0.153 -349.913,-79.031 -349.985,-176.879 -0.081,-97.84 156.484,-177.277 349.696,-177.441 193.214,-0.153 349.913,79.031 349.994,176.879"
       inkscape:connector-curvature="0"
       style="fill:#f0f0ef" />
    <path
       id="path6370"
       d="m 1633.338,225.769 c 0.081,97.811 -156.449,177.232 -349.617,177.396 -193.157,0.152 -349.812,-79.014 -349.895,-176.834 -0.081,-97.811 156.449,-177.232 349.606,-177.396 193.168,-0.154 349.825,79.012 349.906,176.834"
       inkscape:connector-curvature="0"
       style="fill:#efeeed" />
    <path
       id="path6372"
       d="m 1633.236,225.769 c 0.084,97.785 -156.4,177.186 -349.515,177.341 -193.111,0.163 -349.722,-78.986 -349.804,-176.779 -0.081,-97.785 156.402,-177.187 349.515,-177.341 193.122,-0.164 349.733,78.985 349.804,176.779"
       inkscape:connector-curvature="0"
       style="fill:#eeedec" />
    <path
       id="path6374"
       d="m 1633.148,225.769 c 0.081,97.757 -156.358,177.142 -349.427,177.295 -193.057,0.155 -349.631,-78.968 -349.714,-176.733 -0.081,-97.758 156.367,-177.142 349.425,-177.295 193.069,-0.155 349.642,78.966 349.716,176.733"
       inkscape:connector-curvature="0"
       style="fill:#edeceb" />
    <path
       id="path6376"
       d="m 1633.057,225.769 c 0.08,97.739 -156.323,177.096 -349.336,177.249 C 1090.71,403.182 934.18,324.07 934.098,226.331 934.016,128.592 1090.419,49.235 1283.432,49.08 c 193.013,-0.162 349.55,78.95 349.625,176.689"
       inkscape:connector-curvature="0"
       style="fill:#ebebea" />
    <path
       id="path6378"
       d="m 1632.965,225.769 c 0.081,97.711 -156.284,177.05 -349.244,177.205 -192.956,0.153 -349.449,-78.931 -349.532,-176.643 -0.072,-97.713 156.285,-177.052 349.243,-177.205 192.967,-0.154 349.462,78.93 349.533,176.643"
       inkscape:connector-curvature="0"
       style="fill:#eaeae9" />
    <path
       id="path6380"
       d="m 1632.877,225.769 c 0.081,97.684 -156.242,177.005 -349.156,177.159 -192.912,0.153 -349.36,-78.913 -349.441,-176.597 -0.072,-97.684 156.249,-177.006 349.152,-177.159 192.915,-0.155 349.371,78.913 349.445,176.597"
       inkscape:connector-curvature="0"
       style="fill:#e9e9e8" />
    <path
       id="path6382"
       d="m 1632.785,225.769 c 0.081,97.658 -156.203,176.961 -349.064,177.113 -192.858,0.156 -349.269,-78.884 -349.351,-176.551 -0.072,-97.658 156.203,-176.961 349.062,-177.115 192.869,-0.154 349.272,78.886 349.353,176.553"
       inkscape:connector-curvature="0"
       style="fill:#e8e8e7" />
    <path
       id="path6384"
       d="m 1632.694,225.769 c 0.081,97.63 -156.157,176.906 -348.973,177.068 -192.812,0.155 -349.178,-78.868 -349.259,-176.506 -0.072,-97.63 156.166,-176.906 348.971,-177.07 192.811,-0.153 349.18,78.868 349.261,176.508"
       inkscape:connector-curvature="0"
       style="fill:#e7e7e6" />
    <path
       id="path6386"
       d="m 1632.602,225.769 c 0.074,97.604 -156.122,176.86 -348.881,177.015 -192.757,0.162 -349.089,-78.841 -349.161,-176.453 -0.081,-97.604 156.113,-176.86 348.872,-177.015 192.759,-0.164 349.089,78.841 349.17,176.453"
       inkscape:connector-curvature="0"
       style="fill:#e6e6e5" />
    <path
       id="path6388"
       d="m 1632.514,225.769 c 0.07,97.584 -156.087,176.814 -348.793,176.969 -192.703,0.162 -348.988,-78.821 -349.069,-176.407 -0.083,-97.586 156.076,-176.816 348.78,-176.969 192.714,-0.164 348.997,78.821 349.082,176.407"
       inkscape:connector-curvature="0"
       style="fill:#e5e5e4" />
    <path
       id="path6390"
       d="m 1632.422,225.769 c 0.07,97.558 -156.041,176.77 -348.701,176.923 -192.659,0.164 -348.897,-78.804 -348.98,-176.361 -0.081,-97.558 156.041,-176.77 348.691,-176.924 192.662,-0.163 348.909,78.805 348.99,176.362"
       inkscape:connector-curvature="0"
       style="fill:#e3e4e3" />
    <path
       id="path6392"
       d="m 1632.331,225.769 c 0.074,97.53 -155.995,176.724 -348.61,176.878 -192.604,0.155 -348.807,-78.776 -348.888,-176.316 -0.082,-97.532 155.995,-176.724 348.599,-176.88 192.615,-0.153 348.818,78.778 348.899,176.318"
       inkscape:connector-curvature="0"
       style="fill:#e2e3e2" />
    <path
       id="path6394"
       d="m 1632.239,225.769 c 0.074,97.503 -155.956,176.679 -348.518,176.834 -192.559,0.153 -348.715,-78.761 -348.798,-176.272 -0.081,-97.503 155.958,-176.679 348.509,-176.834 192.558,-0.153 348.726,78.759 348.807,176.272"
       inkscape:connector-curvature="0"
       style="fill:#e1e2e1" />
    <path
       id="path6396"
       d="m 1632.141,225.769 c 0.081,97.477 -155.914,176.633 -348.42,176.788 -192.503,0.153 -348.625,-78.741 -348.706,-176.226 -0.083,-97.477 155.912,-176.635 348.418,-176.788 192.505,-0.155 348.627,78.741 348.708,176.226"
       inkscape:connector-curvature="0"
       style="fill:#e0e1e0" />
    <path
       id="path6398"
       d="m 1632.049,225.769 c 0.081,97.448 -155.868,176.589 -348.328,176.742 -192.449,0.155 -348.536,-78.723 -348.617,-176.18 -0.081,-97.449 155.877,-176.589 348.328,-176.742 192.46,-0.155 348.536,78.721 348.617,176.18"
       inkscape:connector-curvature="0"
       style="fill:#dfe0de" />
    <path
       id="path6400"
       d="m 1631.961,225.769 c 0.081,97.431 -155.833,176.543 -348.24,176.696 C 1091.317,402.62 935.277,323.762 935.196,226.331 935.122,128.9 1091.027,49.788 1283.432,49.633 c 192.414,-0.153 348.444,78.705 348.529,176.136"
       inkscape:connector-curvature="0"
       style="fill:#dedfdd" />
    <path
       id="path6402"
       d="m 1631.87,225.769 c 0.081,97.403 -155.787,176.489 -348.148,176.652 -192.351,0.153 -348.355,-78.686 -348.427,-176.09 -0.081,-97.405 155.787,-176.489 348.137,-176.652 192.362,-0.154 348.357,78.685 348.438,176.09"
       inkscape:connector-curvature="0"
       style="fill:#dddedc" />
    <path
       id="path6404"
       d="m 1631.778,225.769 c 0.081,97.376 -155.748,176.443 -348.057,176.598 -192.305,0.162 -348.263,-78.66 -348.335,-176.036 -0.083,-97.376 155.75,-176.445 348.046,-176.598 192.305,-0.164 348.265,78.66 348.346,176.036"
       inkscape:connector-curvature="0"
       style="fill:#dcdddb" />
    <path
       id="path6406"
       d="m 1631.687,225.769 c 0.084,97.348 -155.713,176.399 -347.966,176.552 -192.251,0.164 -348.173,-78.631 -348.246,-175.99 -0.081,-97.35 155.705,-176.399 347.957,-176.552 192.26,-0.164 348.173,78.631 348.255,175.99"
       inkscape:connector-curvature="0"
       style="fill:#dbdcda" />
    <path
       id="path6408"
       d="m 1631.599,225.769 c 0.08,97.322 -155.672,176.353 -347.878,176.506 -192.205,0.164 -348.082,-78.614 -348.154,-175.944 -0.083,-97.322 155.668,-176.353 347.865,-176.508 192.206,-0.162 348.081,78.614 348.167,175.946"
       inkscape:connector-curvature="0"
       style="fill:#dadbda" />
    <path
       id="path6410"
       d="m 1631.496,225.769 c 0.082,97.304 -155.621,176.307 -347.775,176.462 -192.149,0.153 -347.983,-78.596 -348.064,-175.9 -0.081,-97.304 155.624,-176.307 347.775,-176.462 192.161,-0.153 347.993,78.596 348.064,175.9"
       inkscape:connector-curvature="0"
       style="fill:#d9dad9" />
    <path
       id="path6412"
       d="m 1631.408,225.769 c 0.081,97.276 -155.579,176.261 -347.687,176.416 -192.106,0.154 -347.891,-78.578 -347.972,-175.854 -0.083,-97.278 155.586,-176.263 347.683,-176.416 192.108,-0.155 347.902,78.576 347.976,175.854"
       inkscape:connector-curvature="0"
       style="fill:#d8d9d8" />
    <path
       id="path6414"
       d="m 1631.316,225.769 c 0.081,97.249 -155.54,176.217 -347.595,176.371 -192.051,0.155 -347.802,-78.56 -347.883,-175.809 -0.081,-97.25 155.543,-176.217 347.594,-176.371 192.051,-0.154 347.81,78.56 347.884,175.809"
       inkscape:connector-curvature="0"
       style="fill:#d7d8d7" />
    <path
       id="path6416"
       d="m 1631.225,225.769 c 0.081,97.221 -155.506,176.172 -347.504,176.325 -191.997,0.155 -347.71,-78.531 -347.791,-175.763 -0.074,-97.223 155.503,-176.172 347.502,-176.327 192.006,-0.153 347.719,78.533 347.793,175.765"
       inkscape:connector-curvature="0"
       style="fill:#d6d7d6" />
    <path
       id="path6418"
       d="m 1631.134,225.769 c 0.081,97.195 -155.46,176.126 -347.412,176.281 -191.951,0.153 -347.621,-78.515 -347.702,-175.719 -0.072,-97.195 155.469,-176.126 347.413,-176.281 191.952,-0.153 347.63,78.514 347.701,175.719"
       inkscape:connector-curvature="0"
       style="fill:#d5d6d5" />
    <path
       id="path6420"
       d="m 1631.046,225.769 c 0.081,97.177 -155.425,176.071 -347.324,176.235 -191.897,0.153 -347.529,-78.496 -347.61,-175.673 -0.074,-97.177 155.423,-176.073 347.321,-176.235 191.907,-0.155 347.539,78.496 347.613,175.673"
       inkscape:connector-curvature="0"
       style="fill:#d4d5d4" />
    <path
       id="path6422"
       d="m 1630.954,225.769 c 0.081,97.149 -155.379,176.025 -347.233,176.18 -191.85,0.164 -347.438,-78.469 -347.52,-175.618 -0.072,-97.151 155.388,-176.027 347.231,-176.18 191.854,-0.164 347.441,78.467 347.522,175.618"
       inkscape:connector-curvature="0"
       style="fill:#d3d4d3" />
    <path
       id="path6424"
       d="m 1630.862,225.769 c 0.074,97.123 -155.34,175.981 -347.141,176.135 -191.798,0.154 -347.347,-78.451 -347.42,-175.573 -0.082,-97.123 155.333,-175.982 347.131,-176.136 191.798,-0.154 347.349,78.452 347.43,175.574"
       inkscape:connector-curvature="0"
       style="fill:#d2d3d2" />
    <path
       id="path6426"
       d="m 1630.771,225.769 c 0.074,97.095 -155.305,175.936 -347.05,176.089 -191.743,0.155 -347.257,-78.431 -347.329,-175.527 -0.081,-97.096 155.297,-175.936 347.04,-176.09 191.752,-0.154 347.258,78.432 347.339,175.528"
       inkscape:connector-curvature="0"
       style="fill:#d1d2d1" />
    <path
       id="path6428"
       d="m 1630.683,225.769 c 0.07,97.068 -155.263,175.89 -346.962,176.045 -191.697,0.153 -347.157,-78.415 -347.238,-175.483 -0.082,-97.068 155.259,-175.892 346.95,-176.045 191.699,-0.155 347.169,78.415 347.25,175.483"
       inkscape:connector-curvature="0"
       style="fill:#d1d2d0" />
    <path
       id="path6430"
       d="m 1630.591,225.769 c 0.074,97.051 -155.224,175.846 -346.87,175.999 -191.643,0.155 -347.067,-78.387 -347.148,-175.437 -0.081,-97.051 155.215,-175.846 346.859,-175.999 191.654,-0.155 347.078,78.387 347.159,175.437"
       inkscape:connector-curvature="0"
       style="fill:#d0d1cf" />
    <path
       id="path6432"
       d="m 1630.5,225.769 c 0.074,97.022 -155.178,175.8 -346.778,175.953 -191.597,0.155 -346.976,-78.369 -347.057,-175.391 -0.083,-97.024 155.178,-175.8 346.768,-175.955 191.6,-0.153 346.986,78.369 347.067,175.393"
       inkscape:connector-curvature="0"
       style="fill:#cfd0ce" />
    <path
       id="path6434"
       d="m 1630.408,225.769 c 0.074,96.996 -155.143,175.754 -346.687,175.909 -191.542,0.153 -346.886,-78.351 -346.967,-175.347 -0.081,-96.996 155.134,-175.754 346.678,-175.909 191.555,-0.153 346.895,78.351 346.976,175.347"
       inkscape:connector-curvature="0"
       style="fill:#cecfcd" />
    <path
       id="path6436"
       d="m 1630.309,225.769 c 0.081,96.968 -155.097,175.708 -346.588,175.864 -191.49,0.152 -346.794,-78.334 -346.877,-175.302 -0.081,-96.97 155.099,-175.71 346.588,-175.864 191.499,-0.154 346.796,78.332 346.877,175.302"
       inkscape:connector-curvature="0"
       style="fill:#cdcecc" />
    <path
       id="path6438"
       d="m 1630.218,225.769 c 0.084,96.941 -155.051,175.654 -346.497,175.818 -191.444,0.154 -346.704,-78.315 -346.785,-175.256 -0.072,-96.942 155.061,-175.656 346.496,-175.818 191.453,-0.155 346.705,78.315 346.786,175.256"
       inkscape:connector-curvature="0"
       style="fill:#cccdcc" />
    <path
       id="path6440"
       d="m 1630.13,225.769 c 0.081,96.913 -155.009,175.61 -346.408,175.763 -191.389,0.164 -346.613,-78.277 -346.696,-175.201 -0.072,-96.915 155.016,-175.61 346.406,-175.765 191.4,-0.162 346.614,78.279 346.698,175.203"
       inkscape:connector-curvature="0"
       style="fill:#cbcccb" />
    <path
       id="path6442"
       d="m 1630.038,225.769 c 0.081,96.887 -154.97,175.564 -346.317,175.719 -191.343,0.153 -346.523,-78.262 -346.595,-175.157 -0.081,-96.887 154.97,-175.564 346.306,-175.719 191.343,-0.153 346.525,78.26 346.606,175.157"
       inkscape:connector-curvature="0"
       style="fill:#cbcccb" />
    <path
       id="path6444"
       d="m 1628.524,225.769 c 0.074,96.469 -154.301,174.793 -344.802,174.948 C 1093.22,400.881 938.721,322.8 938.641,226.331 938.558,129.86 1092.931,51.536 1283.443,51.383 c 190.502,-0.164 345,77.915 345.081,174.386"
       inkscape:connector-curvature="0"
       style="fill:#cfd0cf" />
    <path
       id="path6446"
       d="m 1627.003,225.769 c 0.07,96.043 -153.621,174.032 -343.281,174.187 -189.667,0.153 -343.486,-77.582 -343.56,-173.625 -0.081,-96.045 153.611,-174.032 343.281,-174.187 189.656,-0.153 343.479,77.58 343.56,173.625"
       inkscape:connector-curvature="0"
       style="fill:#d4d5d3" />
    <path
       id="path6448"
       d="m 1625.477,225.769 c 0.081,95.617 -152.931,173.261 -341.756,173.416 -188.824,0.155 -341.964,-77.237 -342.045,-172.854 -0.072,-95.619 152.931,-173.263 341.766,-173.416 188.826,-0.155 341.965,77.235 342.035,172.854"
       inkscape:connector-curvature="0"
       style="fill:#d7d8d7" />
    <path
       id="path6450"
       d="m 1623.967,225.778 c 0.07,95.193 -152.262,172.482 -340.246,172.635 -187.99,0.155 -340.449,-76.889 -340.522,-172.091 -0.082,-95.193 152.252,-172.482 340.244,-172.638 187.98,-0.152 340.439,76.892 340.524,172.094"
       inkscape:connector-curvature="0"
       style="fill:#dbdcdb" />
    <path
       id="path6452"
       d="m 1622.442,225.778 c 0.081,94.766 -151.572,171.711 -338.72,171.866 -187.148,0.153 -338.927,-76.547 -338.999,-171.322 -0.083,-94.767 151.571,-171.713 338.72,-171.866 187.146,-0.155 338.918,76.546 338.999,171.322"
       inkscape:connector-curvature="0"
       style="fill:#dfdfde" />
    <path
       id="path6454"
       d="m 1620.927,225.778 c 0.074,94.34 -150.899,170.942 -337.206,171.094 -186.313,0.156 -337.403,-76.201 -337.486,-170.55 -0.081,-94.34 150.892,-170.941 337.208,-171.096 186.314,-0.154 337.403,76.203 337.484,170.552"
       inkscape:connector-curvature="0"
       style="fill:#e2e3e1" />
    <path
       id="path6456"
       d="m 1619.406,225.778 c 0.074,93.923 -150.212,170.181 -335.685,170.325 -185.47,0.153 -335.891,-75.858 -335.963,-169.781 -0.081,-93.923 150.212,-170.181 335.685,-170.325 185.469,-0.155 335.889,75.858 335.963,169.781"
       inkscape:connector-curvature="0"
       style="fill:#e5e6e5" />
    <path
       id="path6458"
       d="m 1617.884,225.778 c 0.081,93.497 -149.532,169.409 -334.163,169.554 -184.636,0.155 -334.368,-75.513 -334.449,-169.01 -0.074,-93.497 149.54,-169.409 334.171,-169.556 184.627,-0.153 334.367,75.515 334.441,169.012"
       inkscape:connector-curvature="0"
       style="fill:#e8e8e7" />
    <path
       id="path6460"
       d="m 1616.37,225.778 c 0.07,93.071 -148.863,168.638 -332.656,168.793 -183.796,0.144 -332.846,-75.178 -332.92,-168.249 -0.081,-93.071 148.853,-168.64 332.649,-168.793 183.793,-0.147 332.846,75.178 332.927,168.249"
       inkscape:connector-curvature="0"
       style="fill:#ebebea" />
    <path
       id="path6462"
       d="m 1614.845,225.778 c 0.084,92.645 -148.17,167.869 -331.131,168.022 -182.953,0.146 -331.325,-74.833 -331.406,-167.478 -0.072,-92.645 148.182,-167.869 331.135,-168.024 182.958,-0.144 331.331,74.835 331.402,167.48"
       inkscape:connector-curvature="0"
       style="fill:#ededec" />
    <path
       id="path6464"
       d="m 1613.334,225.778 c 0.07,92.219 -147.504,167.106 -329.62,167.252 -182.109,0.144 -329.81,-74.49 -329.883,-166.708 -0.072,-92.22 147.501,-167.108 329.612,-167.252 182.116,-0.146 329.807,74.489 329.891,166.708"
       inkscape:connector-curvature="0"
       style="fill:#f0efee" />
    <path
       id="path6466"
       d="m 1611.809,225.778 c 0.074,91.801 -146.821,166.337 -328.095,166.481 -181.277,0.146 -328.287,-74.144 -328.37,-165.937 -0.072,-91.803 146.822,-166.337 328.098,-166.483 181.275,-0.144 328.296,74.146 328.367,165.939"
       inkscape:connector-curvature="0"
       style="fill:#f2f1f0" />
    <path
       id="path6468"
       d="m 1610.288,225.786 c 0.07,91.368 -146.134,165.557 -326.574,165.703 -180.441,0.144 -326.774,-73.801 -326.847,-165.177 -0.072,-91.367 146.143,-165.558 326.576,-165.703 180.44,-0.146 326.771,73.802 326.845,165.177"
       inkscape:connector-curvature="0"
       style="fill:#f3f3f2" />
    <path
       id="path6470"
       d="m 1608.774,225.786 c 0.074,90.942 -145.461,164.787 -325.06,164.932 -179.598,0.146 -325.251,-73.457 -325.323,-164.406 -0.072,-90.941 145.452,-164.786 325.059,-164.933 179.599,-0.144 325.25,73.456 325.324,164.407"
       inkscape:connector-curvature="0"
       style="fill:#f5f4f3" />
    <path
       id="path6472"
       d="m 1607.252,225.786 c 0.07,90.525 -144.785,164.016 -323.538,164.162 -178.765,0.145 -323.737,-73.113 -323.809,-163.636 -0.074,-90.524 144.781,-164.017 323.545,-164.161 178.756,-0.145 323.728,73.11 323.802,163.635"
       inkscape:connector-curvature="0"
       style="fill:#f7f6f5" />
    <path
       id="path6474"
       d="m 1605.738,225.786 c 0.07,90.098 -144.102,163.255 -322.024,163.4 C 1105.793,389.332 961.5,316.409 961.426,226.312 961.354,136.214 1105.53,63.057 1283.45,62.911 c 177.911,-0.144 322.214,72.776 322.288,162.875"
       inkscape:connector-curvature="0"
       style="fill:#f8f7f6" />
    <path
       id="path6476"
       d="m 1604.213,225.786 c 0.074,89.672 -143.422,162.484 -320.499,162.63 -177.087,0.136 -320.701,-72.433 -320.773,-162.104 -0.072,-89.672 143.422,-162.485 320.509,-162.63 177.08,-0.135 320.693,72.432 320.763,162.104"
       inkscape:connector-curvature="0"
       style="fill:#f9f8f7" />
    <path
       id="path6478"
       d="m 1602.691,225.786 c 0.074,89.246 -142.742,161.714 -318.977,161.859 -176.246,0.146 -319.178,-72.086 -319.25,-161.333 -0.072,-89.246 142.742,-161.714 318.986,-161.86 176.245,-0.145 319.167,72.088 319.241,161.334"
       inkscape:connector-curvature="0"
       style="fill:#faf9f8" />
    <path
       id="path6480"
       d="m 1601.177,225.795 c 0.074,88.82 -142.063,160.934 -317.463,161.081 -175.41,0.144 -317.655,-71.743 -317.727,-160.574 -0.074,-88.82 142.054,-160.934 317.463,-161.079 175.4,-0.144 317.657,71.743 317.727,160.572"
       inkscape:connector-curvature="0"
       style="fill:#fbfaf9" />
    <path
       id="path6482"
       d="m 1599.655,225.795 c 0.071,88.394 -141.383,160.165 -315.941,160.309 -174.567,0.146 -316.143,-71.398 -316.215,-159.802 -0.072,-88.394 141.383,-160.163 315.951,-160.309 174.569,-0.144 316.142,71.4 316.205,159.802"
       inkscape:connector-curvature="0"
       style="fill:#fcfafa" />
    <path
       id="path6484"
       d="m 1598.141,225.795 c 0.074,87.968 -140.703,159.404 -314.437,159.54 C 1109.98,385.479 969.095,314.281 969.023,226.302 968.951,138.335 1109.726,66.9 1283.45,66.764 c 173.724,-0.144 314.617,71.054 314.691,159.031"
       inkscape:connector-curvature="0"
       style="fill:#fdfbfa" />
    <path
       id="path6486"
       d="m 1596.62,225.795 c 0.07,87.542 -140.024,158.633 -312.916,158.768 -172.881,0.147 -313.095,-70.709 -313.167,-158.261 -0.074,-87.541 140.024,-158.631 312.913,-158.766 172.893,-0.147 313.096,70.709 313.17,158.259"
       inkscape:connector-curvature="0"
       style="fill:#fdfcfb" />
    <path
       id="path6488"
       d="m 1595.095,225.795 c 0.074,87.126 -139.333,157.862 -311.391,158.008 -172.048,0.135 -311.571,-70.375 -311.645,-157.501 -0.072,-87.124 139.344,-157.861 311.391,-158.006 172.047,-0.135 311.582,70.375 311.645,157.499"
       inkscape:connector-curvature="0"
       style="fill:#fefcfc" />
    <path
       id="path6490"
       d="m 1593.581,225.795 c 0.074,86.7 -138.664,157.092 -309.878,157.236 -171.203,0.136 -310.057,-70.029 -310.121,-156.729 -0.072,-86.698 138.664,-157.09 309.869,-157.236 171.212,-0.136 310.059,70.031 310.13,156.729"
       inkscape:connector-curvature="0"
       style="fill:#fefdfc" />
    <path
       id="path6492"
       d="m 1592.069,225.795 c 0.063,86.274 -137.995,156.321 -308.366,156.467 -170.369,0.136 -308.534,-69.686 -308.607,-155.96 -0.073,-86.272 137.984,-156.32 308.354,-156.465 170.372,-0.136 308.545,69.686 308.619,155.958"
       inkscape:connector-curvature="0"
       style="fill:#fffdfc" />
    <path
       id="path6494"
       d="m 1590.545,225.795 c 0.074,85.857 -137.305,155.56 -306.841,155.696 -169.528,0.135 -307.021,-69.341 -307.084,-155.189 -0.074,-85.855 137.303,-155.558 306.83,-155.695 169.537,-0.136 307.025,69.342 307.095,155.188"
       inkscape:connector-curvature="0"
       style="fill:#fffdfd" />
    <path
       id="path6496"
       d="m 1589.023,225.804 c 0.07,85.421 -136.625,154.78 -305.32,154.917 -168.693,0.136 -305.499,-68.997 -305.571,-154.428 -0.063,-85.419 136.634,-154.78 305.318,-154.915 168.694,-0.136 305.499,68.996 305.573,154.426"
       inkscape:connector-curvature="0"
       style="fill:#fffefd" />
    <path
       id="path6498"
       d="m 1587.509,225.804 c 0.063,84.995 -135.953,154.01 -303.805,154.146 -167.85,0.135 -303.977,-68.653 -304.049,-153.657 -0.072,-84.993 135.946,-154.008 303.795,-154.144 167.86,-0.137 303.985,68.651 304.059,153.655"
       inkscape:connector-curvature="0"
       style="fill:#fffefd" />
    <path
       id="path6500"
       d="m 1585.987,225.804 c 0.07,84.569 -135.266,153.239 -302.284,153.376 -167.016,0.136 -302.461,-68.308 -302.534,-152.887 -0.063,-84.567 135.273,-153.239 302.281,-153.374 167.018,-0.136 302.474,68.307 302.537,152.885"
       inkscape:connector-curvature="0"
       style="fill:#fffefd" />
    <path
       id="path6502"
       d="m 1584.473,225.804 c 0.063,84.152 -134.597,152.478 -300.77,152.614 -166.173,0.127 -300.949,-67.973 -301.012,-152.125 -0.064,-84.151 134.586,-152.476 300.769,-152.612 166.173,-0.128 300.939,67.971 301.013,152.123"
       inkscape:connector-curvature="0"
       style="fill:#fffefd" />
    <path
       id="path6504"
       d="m 1582.948,225.804 c 0.074,83.726 -133.913,151.707 -299.244,151.845 -165.339,0.135 -299.426,-67.63 -299.49,-151.356 -0.072,-83.725 133.906,-151.707 299.246,-151.843 165.332,-0.135 299.418,67.628 299.488,151.354"
       inkscape:connector-curvature="0"
       style="fill:#fffefd" />
    <path
       id="path6506"
       d="m 1581.427,225.804 c 0.074,83.301 -133.227,150.937 -297.723,151.073 -164.497,0.127 -297.903,-67.284 -297.975,-150.584 -0.064,-83.299 133.233,-150.936 297.732,-151.071 164.496,-0.128 297.903,67.282 297.966,150.582"
       inkscape:connector-curvature="0"
       style="fill:#fffefe" />
    <path
       id="path6508"
       d="m 1579.912,225.804 c 0.063,82.875 -132.554,150.166 -296.209,150.304 -163.661,0.135 -296.388,-66.939 -296.451,-149.815 -0.074,-82.873 132.545,-150.166 296.208,-150.301 163.652,-0.136 296.382,66.938 296.452,149.812"
       inkscape:connector-curvature="0"
       style="fill:#fffefe" />
    <path
       id="path6510"
       d="m 1578.391,225.812 c 0.063,82.45 -131.867,149.389 -294.687,149.525 -162.819,0.136 -294.868,-66.595 -294.94,-149.052 -0.063,-82.447 131.876,-149.386 294.696,-149.522 162.821,-0.137 294.868,66.594 294.931,149.049"
       inkscape:connector-curvature="0"
       style="fill:#fffefe" />
    <path
       id="path6512"
       d="m 1576.876,225.812 c 0.063,82.024 -131.194,148.627 -293.173,148.754 -161.985,0.137 -293.353,-66.25 -293.416,-148.281 -0.063,-82.021 131.186,-148.625 293.173,-148.752 161.986,-0.137 293.342,66.25 293.416,148.279"
       inkscape:connector-curvature="0"
       style="fill:#fffefe" />
    <path
       id="path6514"
       d="m 1575.355,225.812 c 0.063,81.598 -130.508,147.857 -291.652,147.984 -161.142,0.136 -291.829,-65.905 -291.901,-147.511 -0.064,-81.596 130.514,-147.854 291.658,-147.981 161.141,-0.137 291.832,65.905 291.895,147.508"
       inkscape:connector-curvature="0"
       style="fill:#fffffe" />
    <path
       id="path6516"
       d="m 1573.83,225.812 c 0.074,81.18 -129.824,147.085 -290.134,147.223 C 1123.394,373.161 993.387,307.464 993.323,226.285 993.26,145.107 1123.16,79.2 1283.46,79.064 c 160.299,-0.126 290.307,65.571 290.37,146.748"
       inkscape:connector-curvature="0"
       style="fill:#fffffe" />
    <path
       id="path6518"
       d="m 1572.316,225.812 c 0.063,80.753 -129.155,146.316 -288.62,146.451 -159.467,0.128 -288.786,-65.225 -288.849,-145.978 -0.072,-80.754 129.146,-146.313 288.614,-146.449 159.464,-0.127 288.792,65.225 288.855,145.976"
       inkscape:connector-curvature="0"
       style="fill:#fffffe" />
    <path
       id="path6520"
       d="m 1570.794,225.812 c 0.063,80.329 -128.468,145.554 -287.098,145.68 -158.624,0.129 -287.272,-64.88 -287.335,-145.207 -0.064,-80.327 128.475,-145.554 287.099,-145.681 158.633,-0.125 287.271,64.884 287.334,145.208"
       inkscape:connector-curvature="0"
       style="fill:#fffffe" />
    <path
       id="path6522"
       d="m 1569.28,225.812 c 0.063,79.902 -127.796,144.783 -285.584,144.911 -157.782,0.126 -285.748,-64.538 -285.812,-144.438 -0.065,-79.902 127.796,-144.781 285.576,-144.908 157.788,-0.127 285.75,64.536 285.82,144.435"
       inkscape:connector-curvature="0"
       style="fill:#fffffe" />
    <path
       id="path6524"
       d="m 1567.758,225.812 c 0.063,79.486 -127.116,144.012 -284.062,144.14 -156.948,0.127 -284.227,-64.193 -284.3,-143.667 -0.063,-79.484 127.117,-144.013 284.064,-144.139 156.946,-0.126 284.235,64.194 284.298,143.666"
       inkscape:connector-curvature="0"
       style="fill:#fffffe" />
    <path
       id="path6526"
       d="m 1566.234,225.823 c 0.074,79.049 -126.426,143.232 -282.537,143.359 -156.115,0.126 -282.713,-63.849 -282.777,-142.907 -0.063,-79.048 126.437,-143.232 282.541,-143.358 156.111,-0.127 282.72,63.848 282.773,142.906"
       inkscape:connector-curvature="0"
       style="fill:#fffffe" />
    <path
       id="path6528"
       d="m 1564.723,225.823 c 0.063,78.622 -125.757,142.461 -281.026,142.587 -155.271,0.127 -281.19,-63.503 -281.253,-142.135 -0.073,-78.622 125.756,-142.462 281.024,-142.589 155.27,-0.127 281.192,63.504 281.255,142.137"
       inkscape:connector-curvature="0"
       style="fill:#fffffe" />
    <path
       id="path6530"
       d="m 1563.198,225.823 c 0.063,78.196 -125.077,141.7 -279.502,141.818 -154.427,0.126 -279.677,-63.16 -279.74,-141.366 -0.064,-78.196 125.077,-141.699 279.512,-141.818 154.428,-0.126 279.667,63.159 279.73,141.366"
       inkscape:connector-curvature="0"
       style="fill:#fffffe" />
    <path
       id="path6532"
       d="m 1561.684,225.823 c 0.063,77.779 -124.394,140.929 -277.987,141.055 -153.593,0.118 -278.154,-62.824 -278.218,-140.603 -0.063,-77.779 124.398,-140.93 277.989,-141.057 153.586,-0.118 278.153,62.824 278.216,140.605"
       inkscape:connector-curvature="0"
       style="fill:#fffffe" />
    <path
       id="path6534"
       d="m 1560.162,225.823 c 0.063,77.353 -123.718,140.159 -276.466,140.286 -152.76,0.118 -276.639,-62.489 -276.703,-139.834 -0.063,-77.353 123.716,-140.159 276.475,-140.286 152.751,-0.118 276.631,62.488 276.694,139.834"
       inkscape:connector-curvature="0"
       style="fill:#fffffe" />
    <path
       id="path6536"
       d="m 1558.641,225.823 c 0.07,76.927 -123.038,139.388 -274.944,139.515 -151.917,0.117 -275.117,-62.134 -275.182,-139.063 -0.063,-76.928 123.038,-139.389 274.953,-139.516 151.917,-0.118 275.117,62.135 275.173,139.064"
       inkscape:connector-curvature="0"
       style="fill:#fffffe" />
    <path
       id="path6538"
       d="m 1557.126,225.832 c 0.063,76.501 -122.358,138.61 -273.43,138.736 -151.084,0.127 -273.604,-61.8 -273.658,-138.301 -0.064,-76.503 122.349,-138.61 273.429,-138.736 151.076,-0.127 273.596,61.798 273.659,138.301"
       inkscape:connector-curvature="0"
       style="fill:#fffffe" />
    <path
       id="path6540"
       d="m 1555.612,225.832 c 0.053,76.074 -121.686,137.847 -271.916,137.965 -150.24,0.127 -272.08,-61.445 -272.144,-137.53 -0.063,-76.076 121.677,-137.849 271.916,-137.967 150.229,-0.127 272.07,61.447 272.144,137.532"
       inkscape:connector-curvature="0"
       style="fill:#fffffe" />
    <path
       id="path6542"
       d="m 1554.09,225.832 c 0.063,75.65 -120.999,137.078 -270.405,137.196 -149.394,0.126 -270.555,-61.111 -270.609,-136.761 -0.065,-75.65 120.997,-137.077 270.392,-137.196 149.398,-0.126 270.559,61.111 270.622,136.761"
       inkscape:connector-curvature="0"
       style="fill:#fffffe" />
    <path
       id="path6544"
       d="m 1552.565,225.832 c 0.063,75.224 -120.316,136.306 -268.88,136.424 -148.553,0.127 -269.034,-60.756 -269.097,-135.989 -0.055,-75.224 120.319,-136.308 268.879,-136.426 148.564,-0.127 269.045,60.758 269.098,135.991"
       inkscape:connector-curvature="0"
       style="fill:#fffffe" />
    <path
       id="path6546"
       d="m 1549.847,225.832 c 0.063,74.47 -119.104,134.929 -266.161,135.056 -147.056,0.118 -266.314,-60.151 -266.378,-134.621 -0.064,-74.472 119.103,-134.929 266.16,-135.056 147.06,-0.118 266.326,60.149 266.379,134.621"
       inkscape:connector-curvature="0"
       style="fill:#fffdfd" />
    <path
       id="path6548"
       d="m 1547.138,225.832 c 0.063,73.71 -117.889,133.561 -263.452,133.679 -145.553,0.116 -263.604,-59.543 -263.659,-133.244 -0.063,-73.71 117.889,-133.561 263.44,-133.679 145.564,-0.118 263.608,59.543 263.671,133.244"
       inkscape:connector-curvature="0"
       style="fill:#fdfcfb" />
    <path
       id="path6550"
       d="m 1544.416,225.841 c 0.063,72.94 -116.674,132.173 -260.73,132.291 -144.056,0.119 -260.885,-58.925 -260.94,-131.873 -0.063,-72.941 116.674,-132.176 260.722,-132.292 144.059,-0.118 260.885,58.925 260.948,131.874"
       inkscape:connector-curvature="0"
       style="fill:#fcfbfa" />
    <path
       id="path6552"
       d="m 1541.697,225.841 c 0.063,72.187 -115.459,130.805 -258.011,130.915 -142.553,0.117 -258.166,-58.311 -258.23,-130.497 -0.054,-72.189 115.459,-130.806 258.011,-130.915 142.563,-0.118 258.177,58.31 258.23,130.497"
       inkscape:connector-curvature="0"
       style="fill:#fbfaf9" />
    <path
       id="path6554"
       d="m 1538.989,225.841 c 0.053,71.426 -114.247,129.428 -255.303,129.536 -141.057,0.118 -255.456,-57.693 -255.511,-129.118 -0.054,-71.426 114.246,-129.429 255.303,-129.538 141.049,-0.118 255.448,57.694 255.511,129.12"
       inkscape:connector-curvature="0"
       style="fill:#f9f8f7" />
    <path
       id="path6556"
       d="m 1536.27,225.841 c 0.053,70.674 -113.033,128.05 -252.584,128.168 -139.561,0.109 -252.737,-57.087 -252.79,-127.75 -0.065,-70.674 113.02,-128.052 252.582,-128.168 139.552,-0.109 252.736,57.085 252.792,127.75"
       inkscape:connector-curvature="0"
       style="fill:#f8f7f6" />
    <path
       id="path6558"
       d="m 1533.551,225.85 c 0.053,69.903 -111.818,126.663 -249.865,126.782 -138.057,0.107 -250.017,-56.471 -250.08,-126.382 -0.055,-69.905 111.815,-126.664 249.872,-126.782 138.055,-0.109 250.016,56.47 250.073,126.382"
       inkscape:connector-curvature="0"
       style="fill:#f7f6f5" />
    <path
       id="path6560"
       d="m 1530.829,225.85 c 0.056,69.151 -110.592,125.294 -247.143,125.403 -136.562,0.109 -247.307,-55.853 -247.361,-125.003 -0.055,-69.151 110.601,-125.296 247.153,-125.405 136.552,-0.107 247.298,55.854 247.351,125.005"
       inkscape:connector-curvature="0"
       style="fill:#f5f5f4" />
    <path
       id="path6562"
       d="m 1528.11,225.85 c 0.056,68.39 -109.377,123.916 -244.435,124.026 -135.045,0.109 -244.577,-55.238 -244.632,-123.626 -0.054,-68.39 109.388,-123.917 244.435,-124.026 135.054,-0.109 244.579,55.238 244.632,123.626"
       inkscape:connector-curvature="0"
       style="fill:#f4f3f2" />
    <path
       id="path6564"
       d="m 1525.402,225.85 c 0.053,67.627 -108.172,122.548 -241.726,122.657 -133.551,0.108 -241.859,-54.63 -241.913,-122.257 -0.055,-67.63 108.163,-122.549 241.715,-122.658 133.551,-0.109 241.868,54.63 241.924,122.258"
       inkscape:connector-curvature="0"
       style="fill:#f3f2f1" />
    <path
       id="path6566"
       d="m 1522.683,225.85 c 0.053,66.875 -106.95,121.169 -239.007,121.279 -132.046,0.109 -239.14,-54.014 -239.193,-120.879 -0.054,-66.876 106.949,-121.172 238.995,-121.281 132.058,-0.107 239.149,54.014 239.205,120.881"
       inkscape:connector-curvature="0"
       style="fill:#f1f1f0" />
    <path
       id="path6568"
       d="m 1519.964,225.858 c 0.053,66.106 -105.735,119.784 -236.289,119.893 -130.55,0.109 -236.428,-53.398 -236.482,-119.513 -0.055,-66.104 105.733,-119.782 236.292,-119.891 130.543,-0.109 236.423,53.398 236.479,119.511"
       inkscape:connector-curvature="0"
       style="fill:#f0f0ef" />
    <path
       id="path6570"
       d="m 1517.252,225.858 c 0.046,65.352 -104.527,118.407 -233.577,118.514 -129.055,0.109 -233.709,-52.79 -233.763,-118.134 -0.055,-65.352 104.518,-118.405 233.573,-118.514 129.049,-0.107 233.714,52.79 233.767,118.134"
       inkscape:connector-curvature="0"
       style="fill:#efeeed" />
    <path
       id="path6572"
       d="m 1514.533,225.858 c 0.053,64.592 -103.305,117.037 -230.858,117.137 -127.549,0.109 -230.99,-52.174 -231.045,-116.757 -0.054,-64.59 103.306,-117.036 230.855,-117.135 127.553,-0.109 230.992,52.174 231.048,116.755"
       inkscape:connector-curvature="0"
       style="fill:#ededec" />
    <path
       id="path6574"
       d="m 1511.815,225.867 c 0.053,63.831 -102.091,115.651 -228.139,115.75 -126.054,0.109 -228.28,-51.556 -228.327,-115.387 -0.052,-63.83 102.091,-115.649 228.137,-115.75 126.049,-0.109 228.273,51.558 228.329,115.387"
       inkscape:connector-curvature="0"
       style="fill:#ececeb" />
    <path
       id="path6576"
       d="m 1509.096,225.867 c 0.053,63.068 -100.875,114.283 -225.427,114.381 -124.542,0.101 -225.555,-50.95 -225.608,-114.018 -0.045,-63.069 100.876,-114.281 225.425,-114.381 124.552,-0.099 225.554,50.949 225.61,114.018"
       inkscape:connector-curvature="0"
       style="fill:#ebeae9" />
    <path
       id="path6578"
       d="m 1506.373,225.867 c 0.057,62.308 -99.649,112.904 -222.705,113.004 -123.047,0.099 -222.833,-50.333 -222.888,-112.641 -0.055,-62.306 99.66,-112.904 222.705,-113.003 123.049,-0.1 222.846,50.334 222.888,112.64"
       inkscape:connector-curvature="0"
       style="fill:#e9e9e8" />
    <path
       id="path6580"
       d="m 1503.665,225.867 c 0.046,61.556 -98.445,111.527 -219.997,111.625 -121.551,0.101 -220.124,-49.715 -220.169,-111.262 -0.055,-61.554 98.447,-111.526 219.986,-111.626 121.551,-0.098 220.127,49.717 220.18,111.263"
       inkscape:connector-curvature="0"
       style="fill:#e8e8e7" />
    <path
       id="path6582"
       d="m 1500.947,225.867 c 0.046,60.793 -97.234,110.157 -217.279,110.249 -120.046,0.1 -217.404,-49.102 -217.45,-109.886 -0.055,-60.794 97.223,-110.157 217.267,-110.247 120.047,-0.1 217.416,49.099 217.462,109.884"
       inkscape:connector-curvature="0"
       style="fill:#e7e7e6" />
    <path
       id="path6584"
       d="m 1498.227,225.876 c 0.046,60.033 -96.008,108.771 -214.559,108.872 -118.551,0.089 -214.686,-48.494 -214.741,-108.527 -0.044,-60.033 96.017,-108.769 214.558,-108.87 118.551,-0.091 214.697,48.494 214.742,108.525"
       inkscape:connector-curvature="0"
       style="fill:#e5e6e5" />
    <path
       id="path6586"
       d="m 1495.508,225.876 c 0.054,59.272 -94.797,107.394 -211.84,107.493 -117.046,0.091 -211.975,-47.877 -212.02,-107.148 -0.046,-59.27 94.802,-107.392 211.847,-107.492 117.047,-0.09 211.968,47.877 212.013,107.147"
       inkscape:connector-curvature="0"
       style="fill:#e4e4e3" />
    <path
       id="path6588"
       d="m 1492.797,225.876 c 0.046,58.51 -93.589,106.024 -209.129,106.116 -115.55,0.089 -209.255,-47.261 -209.301,-105.771 -0.045,-58.509 93.578,-106.024 209.129,-106.114 115.54,-0.091 209.248,47.261 209.301,105.769"
       inkscape:connector-curvature="0"
       style="fill:#e3e3e2" />
    <path
       id="path6590"
       d="m 1490.078,225.887 c 0.046,57.747 -92.363,104.636 -206.41,104.725 -114.047,0.092 -206.536,-46.642 -206.582,-104.4 -0.046,-57.748 92.365,-104.636 206.41,-104.728 114.046,-0.089 206.536,46.644 206.582,104.403"
       inkscape:connector-curvature="0"
       style="fill:#e1e2e1" />
    <path
       id="path6592"
       d="m 1487.359,225.887 c 0.046,56.987 -91.151,103.259 -203.691,103.35 -112.55,0.089 -203.818,-46.029 -203.872,-103.024 -0.046,-56.987 91.158,-103.259 203.7,-103.349 112.539,-0.092 203.817,46.026 203.863,103.023"
       inkscape:connector-curvature="0"
       style="fill:#e0e1e0" />
    <path
       id="path6594"
       d="m 1484.641,225.887 c 0.052,56.235 -89.938,101.89 -200.984,101.98 -111.043,0.091 -201.097,-45.42 -201.142,-101.654 -0.045,-56.235 89.934,-101.891 200.98,-101.981 111.047,-0.092 201.099,45.421 201.146,101.655"
       inkscape:connector-curvature="0"
       style="fill:#dfe0de" />
    <path
       id="path6596"
       d="m 1481.922,225.887 c 0.052,55.471 -88.722,100.511 -198.264,100.601 -109.539,0.093 -198.378,-44.803 -198.422,-100.276 -0.046,-55.474 88.72,-100.511 198.26,-100.604 109.543,-0.089 198.387,44.805 198.426,100.279"
       inkscape:connector-curvature="0"
       style="fill:#dedfdd" />
    <path
       id="path6598"
       d="m 1479.21,225.887 c 0.046,54.711 -87.506,99.135 -195.552,99.225 -108.044,0.09 -195.657,-44.189 -195.703,-98.899 -0.046,-54.711 87.504,-99.136 195.541,-99.225 108.045,-0.092 195.668,44.188 195.714,98.899"
       inkscape:connector-curvature="0"
       style="fill:#dcdddc" />
    <path
       id="path6600"
       d="m 1476.491,225.896 c 0.046,53.949 -86.291,97.755 -192.833,97.838 -106.54,0.09 -192.948,-43.579 -192.985,-97.53 -0.045,-53.951 86.283,-97.759 192.834,-97.839 106.538,-0.09 192.938,43.58 192.984,97.531"
       inkscape:connector-curvature="0"
       style="fill:#dbdcdb" />
    <path
       id="path6602"
       d="m 1473.772,225.896 c 0.046,53.187 -85.069,96.38 -190.114,96.469 -105.043,0.083 -190.229,-42.973 -190.275,-96.161 -0.046,-53.19 85.077,-96.38 190.123,-96.472 105.035,-0.08 190.22,42.976 190.266,96.164"
       inkscape:connector-curvature="0"
       style="fill:#dadbda" />
    <path
       id="path6604"
       d="m 1471.06,225.896 c 0.039,52.436 -83.861,95.001 -187.402,95.091 -103.54,0.082 -187.51,-42.357 -187.556,-94.783 -0.044,-52.436 83.863,-95.002 187.404,-95.093 103.538,-0.08 187.509,42.358 187.554,94.785"
       inkscape:connector-curvature="0"
       style="fill:#d9dad9" />
    <path
       id="path6606"
       d="m 1468.341,225.896 c 0.035,51.673 -82.646,93.633 -184.684,93.712 -102.042,0.083 -184.8,-41.74 -184.835,-93.404 -0.045,-51.677 82.638,-93.634 184.684,-93.716 102.034,-0.08 184.789,41.741 184.835,93.408"
       inkscape:connector-curvature="0"
       style="fill:#d8d9d8" />
    <path
       id="path6608"
       d="m 1465.622,225.904 c 0.035,50.904 -81.431,92.247 -181.972,92.328 -100.54,0.081 -182.074,-41.124 -182.118,-92.037 -0.037,-50.904 81.433,-92.247 181.974,-92.328 100.537,-0.083 182.081,41.124 182.116,92.037"
       inkscape:connector-curvature="0"
       style="fill:#d7d8d7" />
    <path
       id="path6610"
       d="m 1462.904,225.904 c 0.046,50.152 -80.209,90.868 -179.253,90.951 -99.037,0.081 -179.353,-40.508 -179.399,-90.66 -0.037,-50.153 80.218,-90.87 179.255,-90.951 99.033,-0.081 179.362,40.508 179.397,90.66"
       inkscape:connector-curvature="0"
       style="fill:#d6d7d6" />
    <path
       id="path6612"
       d="m 1460.185,225.904 c 0.046,49.39 -78.994,89.5 -176.534,89.572 -97.54,0.083 -176.643,-39.892 -176.681,-89.281 -0.035,-49.392 78.995,-89.5 176.537,-89.574 97.54,-0.081 176.639,39.891 176.678,89.283"
       inkscape:connector-curvature="0"
       style="fill:#d5d6d5" />
    <path
       id="path6614"
       d="m 1457.473,225.904 c 0.039,48.638 -77.779,88.123 -173.823,88.204 -96.036,0.072 -173.924,-39.284 -173.961,-87.913 -0.044,-48.64 77.781,-88.123 173.817,-88.204 96.043,-0.072 173.921,39.284 173.967,87.913"
       inkscape:connector-curvature="0"
       style="fill:#d4d5d4" />
    <path
       id="path6616"
       d="m 1454.754,225.913 c 0.035,47.868 -76.564,86.735 -171.104,86.818 -94.539,0.072 -171.205,-38.67 -171.24,-86.545 -0.046,-47.869 76.563,-86.735 171.096,-86.818 94.54,-0.072 171.213,38.668 171.248,86.545"
       inkscape:connector-curvature="0"
       style="fill:#d3d4d3" />
    <path
       id="path6618"
       d="m 1452.036,225.913 c 0.046,47.106 -75.349,85.367 -168.385,85.439 -93.036,0.081 -168.487,-38.051 -168.531,-85.166 -0.037,-47.108 75.351,-85.367 168.394,-85.44 93.035,-0.082 168.486,38.052 168.522,85.167"
       inkscape:connector-curvature="0"
       style="fill:#d2d3d2" />
    <path
       id="path6620"
       d="m 1449.323,225.913 c 0.04,46.354 -74.144,83.99 -165.672,84.062 -91.542,0.081 -165.776,-37.435 -165.812,-83.789 -0.037,-46.356 74.135,-83.99 165.675,-84.062 91.531,-0.081 165.767,37.435 165.809,83.789"
       inkscape:connector-curvature="0"
       style="fill:#d1d2d1" />
    <path
       id="path6622"
       d="m 1446.605,225.913 c 0.039,45.593 -72.919,82.62 -162.954,82.692 -90.044,0.074 -163.056,-36.828 -163.093,-82.419 -0.035,-45.593 72.922,-82.622 162.956,-82.694 90.035,-0.072 163.056,36.827 163.091,82.421"
       inkscape:connector-curvature="0"
       style="fill:#d0d1d0" />
    <path
       id="path6624"
       d="m 1443.886,225.922 c 0.039,44.832 -71.708,81.234 -160.235,81.306 -88.54,0.072 -160.347,-36.22 -160.383,-81.053 -0.036,-44.83 71.707,-81.232 160.246,-81.304 88.531,-0.074 160.337,36.22 160.372,81.051"
       inkscape:connector-curvature="0"
       style="fill:#cfd0cf" />
    <path
       id="path6626"
       d="m 1441.167,225.922 c 0.035,44.07 -70.493,79.855 -157.527,79.929 -87.035,0.072 -157.617,-35.605 -157.652,-79.676 -0.037,-44.07 70.491,-79.855 157.525,-79.927 87.035,-0.072 157.619,35.604 157.654,79.674"
       inkscape:connector-curvature="0"
       style="fill:#cecfce" />
    <path
       id="path6628"
       d="m 1438.448,225.922 c 0.035,43.309 -69.27,78.478 -154.808,78.551 -85.529,0.072 -154.898,-34.988 -154.933,-78.298 -0.037,-43.307 69.277,-78.476 154.806,-78.55 85.538,-0.072 154.9,34.989 154.935,78.297"
       inkscape:connector-curvature="0"
       style="fill:#cdcecc" />
    <path
       id="path6630"
       d="m 1435.736,225.922 c 0.028,42.557 -68.062,77.11 -152.095,77.173 -84.035,0.072 -152.177,-34.371 -152.216,-76.92 -0.037,-42.555 68.054,-77.108 152.088,-77.171 84.034,-0.072 152.188,34.371 152.223,76.918"
       inkscape:connector-curvature="0"
       style="fill:#cccdcc" />
    <path
       id="path6632"
       d="m 1433.018,225.93 c 0.039,41.787 -66.847,75.723 -149.377,75.786 -82.529,0.072 -149.468,-33.755 -149.496,-75.55 -0.035,-41.786 66.841,-75.722 149.379,-75.786 82.531,-0.072 149.459,33.755 149.494,75.55"
       inkscape:connector-curvature="0"
       style="fill:#cbcccb" />
    <path
       id="path6634"
       d="m 1430.299,225.93 c 0.035,41.035 -65.625,74.354 -146.659,74.418 -81.033,0.063 -146.748,-33.147 -146.785,-74.182 -0.027,-41.033 65.634,-74.352 146.669,-74.416 81.023,-0.063 146.747,33.148 146.775,74.18"
       inkscape:connector-curvature="0"
       style="fill:#cacbca" />
    <path
       id="path6636"
       d="m 1427.58,225.93 c 0.035,40.274 -64.41,72.977 -143.94,73.041 -79.538,0.063 -144.03,-32.533 -144.065,-72.805 -0.028,-40.272 64.42,-72.975 143.949,-73.039 79.529,-0.063 144.028,32.532 144.056,72.803"
       inkscape:connector-curvature="0"
       style="fill:#c9cac8" />
    <path
       id="path6638"
       d="m 1424.872,225.93 c 0.024,39.52 -63.206,71.599 -141.231,71.662 -78.033,0.063 -141.32,-31.915 -141.346,-71.426 -0.038,-39.52 63.195,-71.598 141.229,-71.662 78.023,-0.063 141.309,31.917 141.348,71.426"
       inkscape:connector-curvature="0"
       style="fill:#c8c9c8" />
    <path
       id="path6640"
       d="m 1422.149,225.941 c 0.029,38.749 -61.98,70.211 -138.516,70.274 -76.531,0.064 -138.594,-31.298 -138.62,-70.058 -0.037,-38.748 61.98,-70.21 138.511,-70.274 76.529,-0.063 138.59,31.299 138.625,70.058"
       inkscape:connector-curvature="0"
       style="fill:#c7c8c7" />
    <path
       id="path6642"
       d="m 1419.43,225.941 c 0.039,37.988 -60.765,68.842 -135.797,68.906 -75.025,0.053 -135.873,-30.693 -135.911,-68.69 -0.026,-37.988 60.767,-68.842 135.802,-68.905 75.032,-0.055 135.881,30.691 135.906,68.689"
       inkscape:connector-curvature="0"
       style="fill:#c6c7c6" />
    <path
       id="path6644"
       d="m 1416.711,225.941 c 0.035,37.234 -59.55,67.464 -133.078,67.527 -73.531,0.055 -133.155,-30.074 -133.192,-67.311 -0.026,-37.236 59.552,-67.463 133.082,-67.527 73.529,-0.054 133.16,30.075 133.188,67.311"
       inkscape:connector-curvature="0"
       style="fill:#c5c6c5" />
    <path
       id="path6646"
       d="m 1414.003,225.941 c 0.025,36.473 -58.339,66.095 -130.37,66.15 -72.025,0.055 -130.445,-29.458 -130.471,-65.934 -0.028,-36.473 58.338,-66.095 130.361,-66.149 72.032,-0.055 130.441,29.458 130.48,65.933"
       inkscape:connector-curvature="0"
       style="fill:#c4c5c4" />
    <path
       id="path6648"
       d="m 1411.285,225.941 c 0.025,35.721 -57.124,64.717 -127.652,64.771 -70.529,0.055 -127.725,-28.841 -127.752,-64.555 -0.036,-35.721 57.122,-64.718 127.643,-64.773 70.528,-0.054 127.732,28.844 127.761,64.557"
       inkscape:connector-curvature="0"
       style="fill:#c3c4c3" />
    <path
       id="path6650"
       d="m 1408.562,225.95 c 0.028,34.95 -55.905,63.331 -124.929,63.386 -69.035,0.063 -125.016,-28.226 -125.042,-63.187 -0.026,-34.952 55.909,-63.331 124.939,-63.386 69.025,-0.063 125.007,28.226 125.032,63.187"
       inkscape:connector-curvature="0"
       style="fill:#c2c3c2" />
    <path
       id="path6652"
       d="m 1405.844,225.95 c 0.027,34.198 -54.683,61.963 -122.21,62.017 -67.53,0.055 -122.295,-27.628 -122.324,-61.818 -0.027,-34.198 54.694,-61.963 122.221,-62.017 67.521,-0.055 122.287,27.628 122.313,61.818"
       inkscape:connector-curvature="0"
       style="fill:#c1c2c1" />
    <path
       id="path6654"
       d="m 1403.135,225.95 c 0.025,33.438 -53.479,60.584 -119.502,60.639 -66.034,0.054 -119.576,-27.011 -119.604,-60.44 -0.027,-33.438 53.47,-60.586 119.502,-60.64 66.023,-0.053 119.576,27.012 119.604,60.441"
       inkscape:connector-curvature="0"
       style="fill:#c0c1c0" />
    <path
       id="path6656"
       d="m 1400.416,225.959 c 0.025,32.667 -52.267,59.198 -116.783,59.252 -64.53,0.055 -116.858,-26.395 -116.884,-59.071 -0.028,-32.668 52.255,-59.198 116.781,-59.252 64.531,-0.055 116.858,26.394 116.886,59.071"
       inkscape:connector-curvature="0"
       style="fill:#bfc0bf" />
    <path
       id="path6658"
       d="m 1397.694,225.959 c 0.028,31.915 -51.038,57.83 -114.072,57.874 -63.022,0.054 -114.136,-25.778 -114.162,-57.693 -0.018,-31.915 51.048,-57.83 114.071,-57.875 63.023,-0.055 114.138,25.779 114.163,57.694"
       inkscape:connector-curvature="0"
       style="fill:#bfbfbe" />
    <path
       id="path6660"
       d="m 1394.975,225.959 c 0.028,31.154 -49.823,56.451 -111.353,56.505 -61.519,0.046 -111.416,-25.17 -111.444,-56.324 -0.026,-31.154 49.836,-56.453 111.353,-56.507 61.53,-0.044 111.426,25.172 111.444,56.326"
       inkscape:connector-curvature="0"
       style="fill:#bebfbd" />
    <path
       id="path6662"
       d="m 1392.267,225.959 c 0.018,30.4 -48.622,55.074 -108.644,55.129 -60.022,0.043 -108.697,-24.556 -108.725,-54.948 -0.027,-30.402 48.611,-55.074 108.633,-55.129 60.026,-0.045 108.708,24.555 108.736,54.948"
       inkscape:connector-curvature="0"
       style="fill:#bdbebc" />
    <path
       id="path6664"
       d="m 1389.548,225.959 c 0.025,29.639 -47.397,53.705 -105.926,53.75 -58.527,0.045 -105.986,-23.938 -106.006,-53.569 -0.026,-29.639 47.399,-53.706 105.915,-53.751 58.529,-0.044 105.989,23.939 106.017,53.57"
       inkscape:connector-curvature="0"
       style="fill:#bcbdbc" />
    <path
       id="path6666"
       d="m 1386.829,225.968 c 0.024,28.87 -46.185,52.318 -103.207,52.364 -57.023,0.046 -103.268,-23.323 -103.286,-52.2 -0.028,-28.87 46.182,-52.318 103.205,-52.364 57.015,-0.046 103.26,23.321 103.288,52.2"
       inkscape:connector-curvature="0"
       style="fill:#bbbcbb" />
    <path
       id="path6668"
       d="m 1384.107,225.968 c 0.028,28.116 -44.966,50.941 -100.484,50.985 -55.527,0.046 -100.549,-22.705 -100.576,-50.821 -0.018,-28.118 44.966,-50.942 100.495,-50.987 55.518,-0.046 100.547,22.707 100.565,50.823"
       inkscape:connector-curvature="0"
       style="fill:#babbba" />
    <path
       id="path6670"
       d="m 1381.398,225.968 c 0.018,27.355 -43.762,49.573 -97.776,49.608 -54.022,0.046 -97.839,-22.088 -97.857,-49.444 -0.026,-27.356 43.753,-49.573 97.776,-49.609 54.021,-0.045 97.829,22.089 97.857,49.445"
       inkscape:connector-curvature="0"
       style="fill:#b9bab9" />
    <path
       id="path6672"
       d="m 1378.68,225.976 c 0.018,26.595 -42.54,48.186 -95.057,48.231 -52.526,0.035 -95.119,-21.483 -95.138,-48.085 -0.026,-26.594 42.538,-48.185 95.057,-48.231 52.517,-0.037 95.11,21.481 95.138,48.085"
       inkscape:connector-curvature="0"
       style="fill:#b8b9b8" />
    <path
       id="path6674"
       d="m 1375.961,225.976 c 0.018,25.833 -41.325,46.808 -92.349,46.852 -51.011,0.046 -92.389,-20.864 -92.417,-46.706 -0.018,-25.834 41.325,-46.808 92.347,-46.854 51.02,-0.044 92.398,20.867 92.419,46.708"
       inkscape:connector-curvature="0"
       style="fill:#b8b9b7" />
    <path
       id="path6676"
       d="m 1373.242,225.976 c 0.018,25.072 -40.103,45.438 -89.63,45.475 -49.517,0.046 -89.679,-20.259 -89.697,-45.329 -0.019,-25.072 40.108,-45.44 89.627,-45.475 49.516,-0.046 89.679,20.257 89.7,45.329"
       inkscape:connector-curvature="0"
       style="fill:#b7b8b6" />
    <path
       id="path6678"
       d="m 1370.519,225.976 c 0.028,24.32 -38.884,44.061 -86.908,44.099 -48.018,0.044 -86.96,-19.643 -86.978,-43.953 -0.017,-24.32 38.895,-44.061 86.909,-44.098 48.022,-0.046 86.96,19.643 86.977,43.952"
       inkscape:connector-curvature="0"
       style="fill:#b6b7b6" />
    <path
       id="path6680"
       d="m 1367.812,225.976 c 0.016,23.558 -37.681,42.684 -84.201,42.729 -46.515,0.036 -84.241,-19.034 -84.259,-42.583 -0.017,-23.559 37.671,-42.684 84.19,-42.73 46.515,-0.035 84.251,19.036 84.27,42.584"
       inkscape:connector-curvature="0"
       style="fill:#b5b6b5" />
    <path
       id="path6682"
       d="m 1365.093,225.985 c 0.017,22.797 -36.465,41.305 -81.481,41.342 -45.019,0.036 -81.521,-18.419 -81.54,-41.216 -0.018,-22.796 36.458,-41.305 81.47,-41.34 45.023,-0.037 81.533,18.417 81.551,41.214"
       inkscape:connector-curvature="0"
       style="fill:#b4b5b4" />
    <path
       id="path6684"
       d="m 1362.374,225.985 c 0.017,22.036 -35.243,39.929 -78.762,39.964 -43.515,0.037 -78.811,-17.801 -78.829,-39.838 -0.019,-22.033 35.25,-39.926 78.766,-39.963 43.519,-0.035 78.804,17.803 78.825,39.837"
       inkscape:connector-curvature="0"
       style="fill:#b3b4b3" />
    <path
       id="path6686"
       d="m 1359.662,225.985 c 0.01,21.273 -34.035,38.549 -76.05,38.587 -42.02,0.036 -76.092,-17.187 -76.11,-38.461 -0.019,-21.273 34.026,-38.549 76.046,-38.584 42.016,-0.037 76.096,17.185 76.114,38.458"
       inkscape:connector-curvature="0"
       style="fill:#b2b3b2" />
    <path
       id="path6688"
       d="m 1356.943,225.985 c 0.018,20.521 -32.813,37.181 -73.331,37.21 -40.515,0.035 -73.373,-16.571 -73.391,-37.084 -0.018,-20.521 32.813,-37.179 73.327,-37.207 40.519,-0.037 73.377,16.57 73.395,37.081"
       inkscape:connector-curvature="0"
       style="fill:#b2b3b2" />
    <path
       id="path6690"
       d="m 1354.224,225.994 c 0.018,19.752 -31.598,35.796 -70.612,35.831 -39.02,0.028 -70.664,-15.961 -70.681,-35.722 -0.01,-19.75 31.606,-35.794 70.617,-35.831 39.015,-0.026 70.658,15.963 70.676,35.722"
       inkscape:connector-curvature="0"
       style="fill:#b1b2b1" />
    <path
       id="path6692"
       d="m 1351.505,225.994 c 0.018,18.999 -30.383,34.417 -67.9,34.454 -37.517,0.027 -67.936,-15.346 -67.955,-34.345 -0.01,-18.998 30.384,-34.417 67.898,-34.452 37.519,-0.028 67.939,15.345 67.957,34.343"
       inkscape:connector-curvature="0"
       style="fill:#b0b1b0" />
    <path
       id="path6694"
       d="m 1348.787,225.994 c 0.018,18.238 -29.171,33.049 -65.182,33.077 -36.012,0.026 -65.216,-14.73 -65.234,-32.968 -0.02,-18.237 29.168,-33.047 65.178,-33.075 36.014,-0.026 65.227,14.73 65.238,32.966"
       inkscape:connector-curvature="0"
       style="fill:#afb0af" />
    <path
       id="path6696"
       d="m 1346.075,225.994 c 0.01,17.477 -27.953,31.672 -62.47,31.698 -34.517,0.028 -62.507,-14.112 -62.515,-31.589 -0.018,-17.475 27.952,-31.669 62.459,-31.696 34.517,-0.028 62.508,14.112 62.526,31.587"
       inkscape:connector-curvature="0"
       style="fill:#afb0ae" />
    <path
       id="path6698"
       d="m 1343.356,226.005 c 0.01,16.713 -26.741,30.282 -59.751,30.31 -33.012,0.027 -59.788,-13.497 -59.797,-30.22 -0.017,-16.715 26.731,-30.284 59.751,-30.311 33.014,-0.026 59.779,13.497 59.797,30.221"
       inkscape:connector-curvature="0"
       style="fill:#aeafae" />
    <path
       id="path6700"
       d="m 1340.637,226.005 c 0.018,15.952 -25.526,28.914 -57.032,28.94 -31.517,0.02 -57.069,-12.888 -57.087,-28.85 -0.01,-15.952 25.524,-28.914 57.041,-28.942 31.506,-0.018 57.068,12.889 57.078,28.852"
       inkscape:connector-curvature="0"
       style="fill:#adaead" />
    <path
       id="path6702"
       d="m 1337.918,226.005 c 0.018,15.2 -24.301,27.537 -54.313,27.563 -30.011,0.018 -54.359,-12.273 -54.368,-27.473 -0.01,-15.2 24.311,-27.537 54.322,-27.564 30.013,-0.019 54.349,12.272 54.359,27.474"
       inkscape:connector-curvature="0"
       style="fill:#acadac" />
    <path
       id="path6704"
       d="m 1335.206,226.005 c 0.011,14.438 -23.096,26.167 -51.601,26.186 -28.517,0.027 -51.639,-11.657 -51.648,-26.096 -0.01,-14.44 23.086,-26.169 51.602,-26.187 28.506,-0.026 51.63,11.657 51.647,26.097"
       inkscape:connector-curvature="0"
       style="fill:#acadab" />
    <path
       id="path6706"
       d="m 1332.488,226.013 c 0.011,13.677 -21.881,24.781 -48.894,24.799 -27.011,0.028 -48.908,-11.05 -48.917,-24.727 -0.018,-13.679 21.871,-24.781 48.882,-24.8 27.013,-0.027 48.919,11.049 48.929,24.728"
       inkscape:connector-curvature="0"
       style="fill:#abacab" />
    <path
       id="path6708"
       d="m 1329.769,226.013 c 0.01,12.916 -20.659,23.403 -46.174,23.422 -25.505,0.026 -46.191,-10.433 -46.208,-23.35 -0.01,-12.916 20.666,-23.404 46.173,-23.422 25.508,-0.028 46.199,10.433 46.209,23.35"
       inkscape:connector-curvature="0"
       style="fill:#aaabaa" />
    <path
       id="path6710"
       d="m 1327.05,226.013 c 0.018,12.154 -19.444,22.025 -43.456,22.053 -24.01,0.018 -43.48,-9.825 -43.489,-21.981 -0.01,-12.155 19.453,-22.025 43.454,-22.053 24.012,-0.018 43.481,9.825 43.491,21.981"
       inkscape:connector-curvature="0"
       style="fill:#a9aaa9" />
    <path
       id="path6712"
       d="m 1324.338,226.013 c 0.01,11.402 -18.236,20.657 -40.744,20.675 -22.504,0.017 -40.761,-9.21 -40.77,-20.603 -0.01,-11.403 18.229,-20.657 40.735,-20.675 22.515,-0.019 40.772,9.208 40.779,20.603"
       inkscape:connector-curvature="0"
       style="fill:#a9aaa9" />
    <path
       id="path6714"
       d="m 1321.62,226.022 c 0.01,10.633 -17.015,19.27 -38.026,19.289 -21.01,0.018 -38.041,-8.593 -38.05,-19.234 -0.01,-10.633 17.013,-19.272 38.015,-19.289 21.011,-0.018 38.053,8.593 38.061,19.234"
       inkscape:connector-curvature="0"
       style="fill:#a8a9a8" />
    <path
       id="path6716"
       d="m 1318.901,226.022 c 0.01,9.881 -15.799,17.901 -35.306,17.91 -19.506,0.02 -35.331,-7.977 -35.34,-17.855 -0.01,-9.881 15.799,-17.902 35.315,-17.912 19.504,-0.018 35.32,7.977 35.331,17.857"
       inkscape:connector-curvature="0"
       style="fill:#a8a8a7" />
    <path
       id="path6718"
       d="m 1316.182,226.022 c 0.01,9.118 -14.584,16.525 -32.588,16.542 -18.008,0.009 -32.611,-7.369 -32.62,-16.487 -0.01,-9.12 14.584,-16.525 32.596,-16.542 18,-0.011 32.601,7.369 32.612,16.487"
       inkscape:connector-curvature="0"
       style="fill:#a7a8a7" />
    <path
       id="path6720"
       d="m 1313.47,226.022 c 0,8.366 -13.369,15.146 -29.875,15.165 -16.514,0.009 -29.893,-6.753 -29.902,-15.11 -0.01,-8.367 13.37,-15.148 29.877,-15.165 16.503,-0.009 29.893,6.753 29.9,15.11"
       inkscape:connector-curvature="0"
       style="fill:#a6a7a6" />
    <path
       id="path6722"
       d="m 1310.751,226.031 c 0,7.596 -12.154,13.768 -27.157,13.777 -15.01,0.009 -27.183,-6.137 -27.183,-13.74 -0.01,-7.597 12.156,-13.768 27.159,-13.779 14.999,-0.009 27.174,6.137 27.181,13.742"
       inkscape:connector-curvature="0"
       style="fill:#a6a6a5" />
    <path
       id="path6724"
       d="m 1308.032,226.031 c 0.01,6.834 -10.939,12.391 -24.445,12.4 -13.506,0.009 -24.455,-5.52 -24.466,-12.363 0,-6.836 10.942,-12.392 24.449,-12.4 13.502,-0.009 24.462,5.52 24.462,12.363"
       inkscape:connector-curvature="0"
       style="fill:#a5a6a5" />
    <path
       id="path6726"
       d="m 1305.313,226.031 c 0.01,6.082 -9.717,11.013 -21.725,11.021 -12.004,0.009 -21.738,-4.902 -21.747,-10.984 0,-6.082 9.727,-11.015 21.728,-11.023 12.01,-0.009 21.744,4.904 21.744,10.986"
       inkscape:connector-curvature="0"
       style="fill:#a4a5a4" />
    <path
       id="path6728"
       d="m 1302.595,226.031 c 0.01,5.321 -8.502,9.644 -19.007,9.644 -10.506,0.018 -19.027,-4.296 -19.027,-9.607 0,-5.322 8.504,-9.645 19.009,-9.645 10.506,-0.019 19.025,4.297 19.025,9.608"
       inkscape:connector-curvature="0"
       style="fill:#a4a5a3" />
    <path
       id="path6730"
       d="m 1299.883,226.031 c 0,4.568 -7.297,8.266 -16.295,8.276 -9.002,0.009 -16.308,-3.689 -16.308,-8.239 -0.01,-4.57 7.288,-8.268 16.297,-8.276 9.002,-0.009 16.299,3.689 16.306,8.239"
       inkscape:connector-curvature="0"
       style="fill:#a3a4a3" />
    <path
       id="path6732"
       d="m 1297.164,226.04 c 0,3.798 -6.072,6.88 -13.576,6.889 -7.506,0.008 -13.588,-3.073 -13.588,-6.87 -0.01,-3.798 6.072,-6.879 13.577,-6.89 7.498,-0.009 13.587,3.073 13.587,6.871"
       inkscape:connector-curvature="0"
       style="fill:#a3a4a2" />
    <path
       id="path6734"
       d="m 1294.445,226.04 c 0.01,3.038 -4.857,5.511 -10.858,5.511 -6.011,0.01 -10.868,-2.456 -10.878,-5.492 0,-3.037 4.867,-5.511 10.868,-5.511 6.001,-0.009 10.868,2.456 10.868,5.492"
       inkscape:connector-curvature="0"
       style="fill:#a2a3a2" />
    <path
       id="path6736"
       d="m 1291.737,226.04 c 0,2.284 -3.655,4.133 -8.149,4.133 -4.505,0.01 -8.16,-1.839 -8.16,-4.114 0,-2.285 3.645,-4.134 8.149,-4.134 4.497,-0.009 8.15,1.84 8.16,4.115"
       inkscape:connector-curvature="0"
       style="fill:#a2a3a2" />
    <path
       id="path6738"
       d="m 1289.015,226.049 c 0,1.514 -2.427,2.747 -5.438,2.756 -3,0 -5.43,-1.233 -5.43,-2.756 0,-1.513 2.43,-2.745 5.43,-2.754 3.001,0 5.438,1.233 5.438,2.754"
       inkscape:connector-curvature="0"
       style="fill:#a1a2a1" />
    <path
       id="path6740"
       d="m 1286.295,226.049 c 0,0.762 -1.215,1.379 -2.719,1.379 -1.493,0 -2.719,-0.617 -2.719,-1.379 0,-0.761 1.226,-1.377 2.719,-1.377 1.504,0 2.719,0.616 2.719,1.377"
       inkscape:connector-curvature="0"
       style="fill:#a1a2a1" />
  </g>
  <g
     id="g6784"
     transform="matrix(0.07292003,0,0,0.13582534,-61.96554,2.0925697)"
     style="display:inline"
     inkscape:export-xdpi="96"
     inkscape:export-ydpi="96">
    <path
       id="path6744"
       d="m 1668.401,213.312 c 3.871,107.59 -165.26,201.007 -377.767,208.662 -212.507,7.653 -387.92,-73.359 -391.795,-180.947 -3.873,-107.59 165.255,-201.009 377.764,-208.662 212.506,-7.653 387.917,73.358 391.798,180.947 z"
       inkscape:connector-curvature="0"
       style="fill-opacity:0;stroke:#fff101;stroke-width:14.678" />
    <g
       id="g6746"
       clip-path="url(#Clip_3)"
       style="opacity:0.37">
      <!-- Deleted image -->
    </g>
    <path
       id="path6748"
       d="m 1322.426,143.802 c 0,0 0.715,-16.53 -6.089,-29.967 0,0 -36.465,-39.909 -61.731,-37.81 0,0 -16.15,3.162 -26.873,-14.202 l -13.367,-12.396 -12.736,5.96 c 0,0 -4.584,1.231 -11.089,-9.098 0,0 2.151,13.897 -16.013,20.391 -18.178,6.489 -6.083,17.838 -17.775,22.52 0,0 -23.939,-28.208 -39.631,-20.395 0,0 13.693,7.664 -0.523,14.554 0,0 -11.743,-11.777 -20.718,-3.446 0,0 -16.3,29.432 -32.724,33.792 0,0 -8.834,17.725 -9.084,31.071 0,0 -15.635,-3.554 -19.976,19.998 0,0 -0.343,20.407 -8.042,29.79 0,0 -5.672,6.048 -9.366,12.291 -3.694,6.242 12.82,14.804 -5.078,20.097 0,0 10.623,12.277 0.318,23.087 0,0 29.837,4.506 5.772,34.702 0,0 12.595,12.473 29.321,11.217 16.729,-1.252 264.194,-102.847 275.404,-152.156"
       inkscape:connector-curvature="0"
       style="fill:#84bf41" />
    <path
       id="path6750"
       d="m 1322.426,143.802 c 0,0 0.715,-16.53 -6.089,-29.967 0,0 -36.465,-39.909 -61.731,-37.81 0,0 -16.15,3.162 -26.873,-14.202 l -13.367,-12.396 -12.736,5.96 c 0,0 -4.584,1.231 -11.089,-9.098 0,0 2.151,13.897 -16.013,20.391 -18.178,6.489 -6.083,17.838 -17.775,22.52 0,0 -23.939,-28.208 -39.631,-20.395 0,0 13.693,7.664 -0.523,14.554 0,0 -11.743,-11.777 -20.718,-3.446 0,0 -16.3,29.432 -32.724,33.792 0,0 -8.834,17.725 -9.084,31.071 0,0 -15.635,-3.554 -19.976,19.998 0,0 -0.343,20.407 -8.042,29.79 0,0 -5.672,6.048 -9.366,12.291 -3.694,6.242 12.82,14.804 -5.078,20.097 0,0 10.623,12.277 0.318,23.087 0,0 29.837,4.506 5.772,34.702 0,0 12.595,12.473 29.321,11.217 16.729,-1.252 264.194,-102.847 275.404,-152.156 z"
       inkscape:connector-curvature="0"
       style="fill-opacity:0;stroke:#171717;stroke-width:4.641;stroke-linecap:round;stroke-linejoin:round" />
    <g
       id="g6752"
       clip-path="url(#Clip_5)"
       style="opacity:0.37">
      <!-- Deleted image -->
    </g>
    <path
       id="path6754"
       d="m 1211.272,194.696 c 0,0 -9.41,-13.606 -10.807,-28.606 0,0 9.601,-53.199 32.103,-64.877 0,0 15.354,-5.929 15.179,-26.334 l 4.711,-17.615 13.955,-1.737 c 0,0 4.534,-1.399 4.538,-13.607 0,0 5.582,12.907 24.413,8.729 18.842,-4.191 14.651,11.859 27.04,9.593 0,0 5.234,-36.625 22.677,-38.37 0,0 -7.504,13.779 8.196,12.039 0,0 3.666,-16.223 15.7,-13.953 0,0 29.47,16.228 45.692,11.17 0,0 16.918,10.295 24.24,21.458 0,0 11.337,-11.333 27.555,6.286 0,0 11.164,17.09 22.677,20.928 0,0 8.019,2.101 14.471,5.415 6.456,3.318 -2.965,19.358 15,14.306 0,0 -2.444,16.047 12.03,19.708 0,0 -22.849,19.706 13.598,32.443 0,0 -4.015,17.265 -18.842,25.112 -14.827,7.85 -278.374,53.674 -314.126,17.912"
       inkscape:connector-curvature="0"
       style="fill:#84bf41" />
    <path
       id="path6756"
       d="m 1211.272,194.696 c 0,0 -9.41,-13.606 -10.807,-28.606 0,0 9.601,-53.199 32.103,-64.877 0,0 15.354,-5.929 15.179,-26.334 l 4.711,-17.615 13.955,-1.737 c 0,0 4.534,-1.399 4.538,-13.607 0,0 5.582,12.907 24.413,8.729 18.842,-4.191 14.651,11.859 27.04,9.593 0,0 5.234,-36.625 22.677,-38.37 0,0 -7.504,13.779 8.196,12.039 0,0 3.666,-16.223 15.7,-13.953 0,0 29.47,16.228 45.692,11.17 0,0 16.918,10.295 24.24,21.458 0,0 11.337,-11.333 27.555,6.286 0,0 11.164,17.09 22.677,20.928 0,0 8.019,2.101 14.471,5.415 6.456,3.318 -2.965,19.358 15,14.306 0,0 -2.444,16.047 12.03,19.708 0,0 -22.849,19.706 13.598,32.443 0,0 -4.015,17.265 -18.842,25.112 -14.827,7.85 -278.374,53.674 -314.126,17.912 z"
       inkscape:connector-curvature="0"
       style="fill-opacity:0;stroke:#171717;stroke-width:4.641;stroke-linecap:round;stroke-linejoin:round" />
    <path
       id="path6758"
       d="m 1549.611,154.669 c -75.494,-64.445 -169.152,-35.429 -169.152,-35.429 -1.624,0.716 -3.036,1.535 -4.315,2.422 -3.162,-0.39 -4.913,-0.478 -4.913,-0.478 -25.005,2.208 -75.204,19.431 -75.204,19.431 -2.339,1.698 -3.941,3.552 -4.998,5.473 -25.052,2.967 -61.624,15.174 -61.624,15.174 -3.346,2.43 -5.435,5.473 -6.66,8.738 -5.116,-0.862 -8.01,-1.122 -8.01,-1.122 -24.963,2.602 -55.943,21.566 -55.943,21.566 -11.673,12.851 -5.839,40.539 -5.839,40.539 0.076,2.581 0.298,5.121 0.616,7.625 -18.08,-4.031 -37.45,-6.576 -57.947,-6.875 0,0 -37.391,29.254 -22.744,83.61 0,0 27.123,117.246 216.82,61.003 0,0 5.793,-4.263 10.248,-16.396 16.032,5.422 26.685,8.055 26.685,8.055 12.393,-0.7 47.861,-7.956 47.861,-7.956 1.761,-2.143 3.357,-4.332 4.829,-6.549 2.867,1.153 4.462,1.722 4.462,1.722 12.407,-0.504 58.617,-20.976 58.617,-20.976 2.31,-2.721 4.357,-5.526 6.202,-8.368 4.205,1.74 6.618,2.601 6.618,2.601 12.403,-0.502 58.616,-20.974 58.616,-20.974 0.828,-0.977 1.62,-1.965 2.388,-2.96 3.74,1.535 6.146,1.722 6.146,1.722 l 37.933,-16.651 c 71.933,-80.056 -10.692,-134.947 -10.692,-134.947"
       inkscape:connector-curvature="0"
       style="fill:#1a1919" />
    <path
       id="path6760"
       d="m 1549.611,154.669 c -75.494,-64.445 -169.152,-35.429 -169.152,-35.429 -1.624,0.716 -3.036,1.535 -4.315,2.422 -3.162,-0.39 -4.913,-0.478 -4.913,-0.478 -25.005,2.208 -75.204,19.431 -75.204,19.431 -2.339,1.698 -3.941,3.552 -4.998,5.473 -25.052,2.967 -61.624,15.174 -61.624,15.174 -3.346,2.43 -5.435,5.473 -6.66,8.738 -5.116,-0.862 -8.01,-1.122 -8.01,-1.122 -24.963,2.602 -55.943,21.566 -55.943,21.566 -11.673,12.851 -5.839,40.539 -5.839,40.539 0.076,2.581 0.298,5.121 0.616,7.625 -18.08,-4.031 -37.45,-6.576 -57.947,-6.875 0,0 -37.391,29.254 -22.744,83.61 0,0 27.123,117.246 216.82,61.003 0,0 5.793,-4.263 10.248,-16.396 16.032,5.422 26.685,8.055 26.685,8.055 12.393,-0.7 47.861,-7.956 47.861,-7.956 1.761,-2.143 3.357,-4.332 4.829,-6.549 2.867,1.153 4.462,1.722 4.462,1.722 12.407,-0.504 58.617,-20.976 58.617,-20.976 2.31,-2.721 4.357,-5.526 6.202,-8.368 4.205,1.74 6.618,2.601 6.618,2.601 12.403,-0.502 58.616,-20.974 58.616,-20.974 0.828,-0.977 1.62,-1.965 2.388,-2.96 3.74,1.535 6.146,1.722 6.146,1.722 l 37.933,-16.651 c 71.933,-80.056 -10.692,-134.947 -10.692,-134.947 z"
       inkscape:connector-curvature="0"
       style="fill-opacity:0;stroke:#1a1919;stroke-width:7.253;stroke-linecap:round;stroke-linejoin:round" />
    <path
       id="path6762"
       d="m 1380.458,119.239 c 0,0 93.659,-29.016 169.152,35.429 0,0 80.305,54.891 10.692,134.947 l -37.933,16.651 c 0,0 -11.28,-0.79 -23.141,-14.686 0,0 -178.697,-145.857 -118.77,-172.341"
       inkscape:connector-curvature="0"
       style="fill:#cd864f" />
    <path
       id="path6764"
       d="m 1380.458,119.239 c 0,0 93.659,-29.016 169.152,35.429 0,0 80.305,54.891 10.692,134.947 l -37.933,16.651 c 0,0 -11.28,-0.79 -23.141,-14.686 0,0 -178.697,-145.857 -118.77,-172.341 z"
       inkscape:connector-curvature="0"
       style="fill-opacity:0;stroke:#1a1919;stroke-width:2.418" />
    <path
       id="path6766"
       d="m 1296.026,140.615 c 0,0 50.2,-17.224 75.205,-19.432 0,0 102.277,4.91 163.641,115.692 0,0 4.737,40.194 -21.036,70.63 0,0 -46.213,20.472 -58.617,20.974 0,0 -134.364,-47.807 -158.696,-158.897 0,0 -15.82,-17.831 -0.497,-28.967"
       inkscape:connector-curvature="0"
       style="fill:#cd864f" />
    <path
       id="path6768"
       d="m 1296.026,140.615 c 0,0 50.2,-17.224 75.205,-19.432 0,0 102.277,4.91 163.641,115.692 0,0 4.737,40.194 -21.036,70.63 0,0 -46.213,20.472 -58.617,20.974 0,0 -134.364,-47.807 -158.696,-158.897 0,0 -15.82,-17.831 -0.497,-28.967 z"
       inkscape:connector-curvature="0"
       style="fill-opacity:0;stroke:#1a1919;stroke-width:2.418" />
    <path
       id="path6770"
       d="m 1304,141.749 c 8.931,0.461 17.76,2.159 26.449,4.269 8.695,2.125 17.222,4.939 25.554,8.224 8.336,3.292 16.468,7.09 24.364,11.346 7.867,4.3 15.489,9.06 22.818,14.226 14.665,10.333 28.206,22.267 40.268,35.542 12.073,13.253 22.931,27.62 32.285,42.891 l 0.119,0.197 0.014,0.197 c 0.405,5.767 0.293,11.469 -0.102,17.178 -0.415,5.702 -1.155,11.381 -2.331,16.972 -2.392,11.146 -6.332,22.097 -12.71,31.553 5.92,-9.729 9.582,-20.648 11.583,-31.773 1.011,-5.567 1.673,-11.198 1.969,-16.844 0.285,-5.636 0.285,-11.338 -0.215,-16.908 l 0.134,0.394 c -9.647,-14.96 -20.329,-29.269 -32.44,-42.302 -12.104,-13.016 -25.371,-24.974 -39.849,-35.299 -7.23,-5.166 -14.757,-9.924 -22.526,-14.244 -7.744,-4.363 -15.746,-8.283 -23.955,-11.706 -16.443,-6.727 -33.651,-12.02 -51.429,-13.913"
       inkscape:connector-curvature="0"
       style="fill:#1a1919" />
    <path
       id="path6772"
       d="m 1229.404,161.261 c 0,0 39.858,-13.309 64.861,-15.517 0,0 107.81,7.089 169.17,117.875 0,0 4.74,40.194 -21.036,70.626 0,0 -46.209,20.473 -58.617,20.976 0,0 -134.358,-47.807 -158.694,-158.897 0,0 -11.006,-23.927 4.316,-35.063"
       inkscape:connector-curvature="0"
       style="fill:#cd864f" />
    <path
       id="path6774"
       d="m 1229.404,161.261 c 0,0 39.858,-13.309 64.861,-15.517 0,0 107.81,7.089 169.17,117.875 0,0 4.74,40.194 -21.036,70.626 0,0 -46.209,20.473 -58.617,20.976 0,0 -134.358,-47.807 -158.694,-158.897 0,0 -11.006,-23.927 4.316,-35.063 z"
       inkscape:connector-curvature="0"
       style="fill-opacity:0;stroke:#1a1919;stroke-width:2.418" />
    <path
       id="path6776"
       d="m 1235.034,164.614 c 8.718,1.683 17.258,4.196 25.693,6.98 8.438,2.79 16.718,6.063 24.847,9.669 8.128,3.61 16.098,7.585 23.881,11.909 7.751,4.374 15.306,9.109 22.617,14.193 14.615,10.171 28.301,21.756 40.438,34.822 12.132,13.045 22.965,27.352 31.808,42.824 l 0.106,0.188 0.014,0.183 c 0.409,5.767 0.293,11.467 -0.102,17.178 -0.415,5.7 -1.159,11.38 -2.335,16.973 -2.388,11.145 -6.332,22.096 -12.71,31.55 5.92,-9.731 9.583,-20.648 11.58,-31.774 1.014,-5.566 1.672,-11.195 1.969,-16.843 0.285,-5.634 0.288,-11.335 -0.212,-16.904 l 0.12,0.371 c -9.115,-15.138 -19.758,-29.356 -31.915,-42.17 -12.168,-12.798 -25.575,-24.42 -40.025,-34.593 -7.22,-5.09 -14.693,-9.831 -22.36,-14.231 -7.642,-4.442 -15.493,-8.541 -23.508,-12.283 -16.063,-7.401 -32.672,-13.793 -49.906,-18.042"
       inkscape:connector-curvature="0"
       style="fill:#1a1919" />
    <path
       id="path6778"
       d="m 1158.792,190.443 c 0,0 30.979,-18.963 55.942,-21.566 0,0 116.574,10.416 179.674,120.221 0,0 5.371,40.115 -19.916,70.95 0,0 -35.468,7.257 -47.861,7.956 0,0 -170.873,-42.202 -173.678,-137.022 0,0 -5.834,-27.688 5.839,-40.539"
       inkscape:connector-curvature="0"
       style="fill:#cd864f" />
    <path
       id="path6780"
       d="m 1158.792,190.443 c 0,0 30.979,-18.963 55.942,-21.566 0,0 116.574,10.416 179.674,120.221 0,0 5.371,40.115 -19.916,70.95 0,0 -35.468,7.257 -47.861,7.956 0,0 -170.873,-42.202 -173.678,-137.022 0,0 -5.834,-27.688 5.839,-40.539 z"
       inkscape:connector-curvature="0"
       style="fill-opacity:0;stroke:#1a1919;stroke-width:2.418" />
    <path
       id="path6782"
       d="m 1164.478,193.708 c 18.002,3.58 35.523,9.438 52.468,16.53 16.966,7.085 33.293,15.735 48.694,25.823 15.422,10.051 29.855,21.672 42.78,34.804 6.473,6.555 12.583,13.464 18.257,20.719 5.645,7.28 10.826,14.91 15.542,22.811 l 0.07,0.122 0.017,0.093 c 0.779,4.312 0.589,8.523 0.106,12.722 -0.504,4.191 -1.507,8.298 -2.782,12.295 -2.578,7.996 -6.371,15.538 -10.939,22.524 4.226,-7.193 7.783,-14.799 10.076,-22.787 1.148,-3.988 1.948,-8.068 2.384,-12.172 0.402,-4.08 0.469,-8.321 -0.317,-12.223 l 0.088,0.215 c -4.835,-7.757 -10.135,-15.214 -15.851,-22.334 -5.67,-7.154 -11.773,-13.962 -18.229,-20.415 -6.455,-6.452 -13.27,-12.545 -20.381,-18.268 -7.093,-5.751 -14.45,-11.175 -22.062,-16.225 -15.228,-10.095 -31.39,-18.764 -48.089,-26.23 -16.749,-7.336 -34.01,-13.667 -51.832,-18.004"
       inkscape:connector-curvature="0"
       style="fill:#1a1919" />
  </g>
  <g
     id="g11589"
     transform="matrix(0.07292003,0,0,0.13582534,-61.96554,2.0925697)"
     style="display:inline"
     inkscape:export-xdpi="96"
     inkscape:export-ydpi="96">
    <path
       style="fill:url(#Gradient_1)"
       inkscape:connector-curvature="0"
       d="m 1157.898,227.231 c 16.634,89.75 153.934,132.167 163.802,135.101 v 0 c 11.101,-8.218 13.193,-40.117 13.408,-43.928 v 0 c -59.096,-94.437 -165.609,-116.717 -175.397,-118.58 v 0 c -3.448,5.256 -2.492,21.465 -1.813,27.407 z"
       id="path6786" />
  </g>
  <g
     id="g11586"
     transform="matrix(0.07292003,0,0,0.13582534,-61.96554,2.0925697)"
     style="display:inline"
     inkscape:export-xdpi="96"
     inkscape:export-ydpi="96">
    <g
       id="g6826">
      <path
         style="fill:#1a1919"
         inkscape:connector-curvature="0"
         d="m 1159.193,198.499 c -5.121,5.987 -2.485,28.951 -2.485,28.951 17.51,94.464 165.21,136.204 165.21,136.204 12.816,-8.556 14.415,-45.567 14.415,-45.567 -62.645,-100.472 -177.14,-119.588 -177.14,-119.588 m 1.132,2.673 c 6.389,1.261 32.002,6.908 63.051,21.696 32.787,15.614 78.508,44.903 110.506,95.859 -0.536,10.174 -3.656,34.99 -12.435,42.267 -6.488,-1.95 -39.817,-12.453 -74.458,-32.169 -35.185,-20.023 -78.984,-53.922 -87.888,-101.734 -0.887,-7.813 -1.234,-20.944 1.224,-25.919"
         id="path6788" />
      <path
         style="fill:#cd864f"
         inkscape:connector-curvature="0"
         d="m 1095.622,231.733 c 0,0 -37.391,29.254 -22.744,83.61 0,0 27.122,117.246 216.82,61.003 0,0 17.377,-12.727 15.08,-57.101 0,0 -83.62,-85.684 -209.156,-87.512"
         id="path6790" />
      <path
         style="fill-opacity:0;stroke:#1a1919;stroke-width:2.418"
         inkscape:connector-curvature="0"
         d="m 1095.622,231.733 c 0,0 -37.391,29.254 -22.744,83.61 0,0 27.122,117.246 216.82,61.003 0,0 17.377,-12.727 15.08,-57.101 0,0 -83.62,-85.684 -209.156,-87.512 z"
         id="path6792" />
      <path
         style="fill:#1a1919"
         inkscape:connector-curvature="0"
         d="m 1295.752,323.119 c -21.24,5.744 -42.998,9.579 -64.919,11.831 -10.965,1.139 -21.998,1.675 -33.037,1.642 -11.035,-0.052 -22.095,-0.731 -33.041,-2.434 -10.916,-1.78 -21.751,-4.587 -31.901,-9.174 -10.093,-4.582 -19.595,-11.094 -26.443,-19.99 -6.936,-8.81 -10.932,-19.645 -12.293,-30.617 -1.328,-11.02 -0.37,-22.149 1.833,-32.908 -1.666,10.849 -2.365,21.936 -0.658,32.744 1.577,10.777 5.687,21.239 12.574,29.626 6.841,8.412 15.968,14.751 25.891,19.137 9.938,4.416 20.604,7.104 31.377,8.798 21.599,3.479 43.692,3.072 65.529,1.335 10.935,-0.89 21.838,-2.23 32.689,-3.922 10.863,-1.634 21.672,-3.654 32.399,-6.068"
         id="path6794" />
      <path
         style="fill:#1a1919"
         inkscape:connector-curvature="0"
         d="m 1389.347,119.688 c 8.252,0.579 16.387,2.342 24.375,4.506 7.994,2.182 15.809,5.011 23.413,8.313 15.228,6.584 29.608,15.151 42.715,25.349 13.119,10.176 25.136,21.8 35.638,34.661 10.534,12.832 19.803,26.68 27.727,41.237 l 0.095,0.169 0.018,0.148 c 0.69,6.013 0.447,11.919 -0.194,17.819 -0.669,5.884 -1.859,11.701 -3.536,17.369 -3.409,11.316 -8.72,22.029 -15.633,31.532 6.441,-9.822 11.46,-20.565 14.457,-31.868 1.539,-5.633 2.602,-11.393 3.148,-17.195 0.521,-5.78 0.617,-11.7 -0.144,-17.356 l 0.106,0.315 c -8.1,-14.333 -17.289,-28.062 -27.837,-40.687 -10.558,-12.598 -22.222,-24.296 -35.186,-34.421 -12.953,-10.111 -27.023,-18.827 -41.984,-25.697 -14.985,-6.735 -30.77,-12.102 -47.178,-14.194"
         id="path6796" />
      <path
         style="fill:#1a1919"
         inkscape:connector-curvature="0"
         d="m 1346.529,312.21 c 7.558,-3.182 15.144,-6.051 22.656,-9.116 7.529,-3.033 14.943,-6.209 22.346,-9.722 -6.421,5.157 -13.88,8.847 -21.441,11.961 -7.614,3.026 -15.457,5.517 -23.561,6.877"
         id="path6798" />
      <path
         style="fill:#1a1919"
         inkscape:connector-curvature="0"
         d="m 1409.189,283.671 c 8.304,-3.369 16.704,-6.278 25.054,-9.31 4.188,-1.486 8.35,-3.022 12.506,-4.578 4.135,-1.604 8.287,-3.168 12.344,-5.068 -3.582,2.712 -7.554,4.893 -11.604,6.802 -4.054,1.932 -8.224,3.582 -12.425,5.115 -8.438,2.982 -17.039,5.497 -25.875,7.039"
         id="path6800" />
      <path
         style="fill:#1a1919"
         inkscape:connector-curvature="0"
         d="m 1479.939,255.466 c 8.273,-3.399 16.683,-6.244 25.096,-9.083 8.431,-2.796 16.849,-5.508 25.382,-8.163 -7.797,4.421 -16.19,7.589 -24.621,10.456 -8.466,2.773 -17.049,5.216 -25.857,6.79"
         id="path6802" />
      <path
         style="fill:#1a1919"
         inkscape:connector-curvature="0"
         d="m 1548.304,232.624 c 4.342,-1.898 8.424,-4.242 12.217,-6.897 3.754,-2.702 7.213,-5.813 9.808,-9.537 2.656,-3.676 4.329,-7.988 4.85,-12.514 0.51,-4.534 -0.077,-9.221 -1.268,-13.81 2.071,4.254 3.37,9.044 3.148,13.953 -0.154,4.903 -1.908,9.764 -4.754,13.765 -2.86,4.01 -6.635,7.234 -10.752,9.713 -4.121,2.49 -8.607,4.314 -13.249,5.327"
         id="path6804" />
      <g
         clip-path="url(#Clip_6)"
         id="g6808">
        <path
           style="fill:#b56624"
           inkscape:connector-curvature="0"
           d="m 1095.621,231.733 c 0,0 -31.892,99.65 79.489,105.452 0,0 110.823,-2.233 129.667,-17.94 0,0 -2.59,44.054 -15.079,57.101 0,0 -196.963,54.816 -217.846,-80.93 0,0 -2.351,-29.907 23.769,-63.683"
           id="path6806" />
      </g>
      <g
         clip-path="url(#Clip_7)"
         id="g6812">
        <path
           style="fill:#b56624"
           inkscape:connector-curvature="0"
           d="m 1344.504,314.56 c 0,0 2.317,31.325 -16.246,51.049 0,0 42.35,-7.542 45.829,-8.122 0,0 19.726,-23.203 17.982,-61.49 0,0 -28.424,16.822 -47.565,18.563"
           id="path6810" />
      </g>
      <g
         clip-path="url(#Clip_8)"
         id="g6816">
        <path
           style="fill:#b56624"
           inkscape:connector-curvature="0"
           d="m 1406.572,285.555 c 0,0 2.321,45.828 -16.243,65.552 0,0 33.066,-10.443 49.89,-17.983 0,0 23.787,-29.005 20.304,-66.713 0,0 -34.806,17.403 -53.951,19.144"
           id="path6814" />
      </g>
      <g
         clip-path="url(#Clip_9)"
         id="g6820">
        <path
           style="fill:#b56624"
           inkscape:connector-curvature="0"
           d="m 1477.927,258.87 c 0,0 2.322,45.828 -16.242,65.552 0,0 33.067,-10.443 49.89,-17.983 0,0 23.783,-29.005 20.304,-66.714 0,0 -34.806,17.404 -53.952,19.145"
           id="path6818" />
      </g>
      <g
         clip-path="url(#Clip_10)"
         id="g6824">
        <path
           style="fill:#b56624"
           inkscape:connector-curvature="0"
           d="m 1545.219,234.504 c 0,0 2.902,44.09 -22.043,69.033 0,0 20.884,-9.861 37.708,-17.403 0,0 44.086,-47.569 16.243,-96.297 0,0 12.182,37.127 -31.908,44.667"
           id="path6822" />
      </g>
    </g>
  </g>
</svg>
